# MagicaVoxel @ Ephtracy

# group
o 

# material
mtllib wall-0.mtl
usemtl palette

# normals
vn -1 0 0
vn 1 0 0
vn 0 0 1
vn 0 0 -1
vn 0 -1 0
vn 0 1 0

# texcoords
vt 0.876953 0.5
vt 0.884766 0.5

# verts
v -0.2 -2.2 2.5
v -0.2 -2.2 -2.5
v -0.2 2.3 2.5
v -0.2 2.3 -2.5
v 0.1 -2.2 2.5
v 0.1 -2.2 -2.5
v 0.1 -2.1 2.4
v 0.1 -2.1 1.6
v 0.1 -2.1 1.4
v 0.1 -2.1 0.6
v 0.1 -2.1 0.4
v 0.1 -2.1 -0.4
v 0.1 -2.1 -0.6
v 0.1 -2.1 -1.4
v 0.1 -2.1 -1.6
v 0.1 -2.1 -2.4
v 0.1 -0.6 1.4
v 0.1 -0.6 0.6
v 0.1 -0.4 1.4
v 0.1 -0.4 0.6
v 0.1 0.6 2.4
v 0.1 0.6 1.6
v 0.1 0.8 2.4
v 0.1 0.8 1.6
v 0.1 0.9 -0.6
v 0.1 0.9 -1.4
v 0.1 1.1 -0.6
v 0.1 1.1 -1.4
v 0.1 2.2 2.4
v 0.1 2.2 1.6
v 0.1 2.2 1.4
v 0.1 2.2 0.6
v 0.1 2.2 0.4
v 0.1 2.2 -0.4
v 0.1 2.2 -0.6
v 0.1 2.2 -1.4
v 0.1 2.2 -1.6
v 0.1 2.2 -2.4
v 0.1 2.3 2.5
v 0.1 2.3 -2.5
v 0.2 -2.1 2.4
v 0.2 -2.1 1.6
v 0.2 -2.1 1.4
v 0.2 -2.1 0.6
v 0.2 -2.1 0.4
v 0.2 -2.1 -0.4
v 0.2 -2.1 -0.6
v 0.2 -2.1 -1.4
v 0.2 -2.1 -1.6
v 0.2 -2.1 -2.4
v 0.2 -2 2.3
v 0.2 -2 2.2
v 0.2 -2 1.8
v 0.2 -2 1.7
v 0.2 -2 1.3
v 0.2 -2 1.2
v 0.2 -2 0.8
v 0.2 -2 0.7
v 0.2 -2 0.3
v 0.2 -2 0.2
v 0.2 -2 -0.2
v 0.2 -2 -0.3
v 0.2 -2 -1.2
v 0.2 -2 -1.3
v 0.2 -2 -1.7
v 0.2 -2 -1.8
v 0.2 -2 -2.2
v 0.2 -2 -2.3
v 0.2 -1.9 2.3
v 0.2 -1.9 2.2
v 0.2 -1.9 1.8
v 0.2 -1.9 1.7
v 0.2 -1.9 1.3
v 0.2 -1.9 1.2
v 0.2 -1.9 0.8
v 0.2 -1.9 0.7
v 0.2 -1.9 0.3
v 0.2 -1.9 0.2
v 0.2 -1.9 -0.2
v 0.2 -1.9 -0.3
v 0.2 -1.9 -1.2
v 0.2 -1.9 -1.3
v 0.2 -1.9 -1.7
v 0.2 -1.9 -1.8
v 0.2 -1.9 -2.2
v 0.2 -1.9 -2.3
v 0.2 -0.8 1.3
v 0.2 -0.8 1.2
v 0.2 -0.8 0.8
v 0.2 -0.8 0.7
v 0.2 -0.7 1.3
v 0.2 -0.7 1.2
v 0.2 -0.7 0.8
v 0.2 -0.7 0.7
v 0.2 -0.6 1.4
v 0.2 -0.6 0.6
v 0.2 -0.4 1.4
v 0.2 -0.4 0.6
v 0.2 -0.3 1.3
v 0.2 -0.3 1.2
v 0.2 -0.3 0.8
v 0.2 -0.3 0.7
v 0.2 -0.2 1.3
v 0.2 -0.2 1.2
v 0.2 -0.2 0.8
v 0.2 -0.2 0.7
v 0.2 0.4 2.3
v 0.2 0.4 2.2
v 0.2 0.4 1.8
v 0.2 0.4 1.7
v 0.2 0.5 2.3
v 0.2 0.5 2.2
v 0.2 0.5 1.8
v 0.2 0.5 1.7
v 0.2 0.6 2.4
v 0.2 0.6 1.6
v 0.2 0.7 -0.7
v 0.2 0.7 -0.8
v 0.2 0.7 -1.2
v 0.2 0.7 -1.3
v 0.2 0.8 2.4
v 0.2 0.8 1.6
v 0.2 0.8 -0.7
v 0.2 0.8 -0.8
v 0.2 0.8 -1.2
v 0.2 0.8 -1.3
v 0.2 0.9 2.3
v 0.2 0.9 2.2
v 0.2 0.9 1.8
v 0.2 0.9 1.7
v 0.2 0.9 -0.6
v 0.2 0.9 -1.4
v 0.2 1 2.3
v 0.2 1 2.2
v 0.2 1 1.8
v 0.2 1 1.7
v 0.2 1.1 -0.6
v 0.2 1.1 -1.4
v 0.2 1.2 -1.2
v 0.2 1.2 -1.3
v 0.2 1.3 -1.2
v 0.2 1.3 -1.3
v 0.2 2 2.3
v 0.2 2 2.2
v 0.2 2 1.8
v 0.2 2 1.7
v 0.2 2 1.3
v 0.2 2 1.2
v 0.2 2 0.8
v 0.2 2 0.7
v 0.2 2 0.3
v 0.2 2 0.2
v 0.2 2 -0.2
v 0.2 2 -0.3
v 0.2 2 -0.7
v 0.2 2 -0.8
v 0.2 2 -1.2
v 0.2 2 -1.3
v 0.2 2 -1.7
v 0.2 2 -1.8
v 0.2 2 -2.2
v 0.2 2 -2.3
v 0.2 2.1 2.3
v 0.2 2.1 2.2
v 0.2 2.1 1.8
v 0.2 2.1 1.7
v 0.2 2.1 1.3
v 0.2 2.1 1.2
v 0.2 2.1 0.8
v 0.2 2.1 0.7
v 0.2 2.1 0.3
v 0.2 2.1 0.2
v 0.2 2.1 -0.2
v 0.2 2.1 -0.3
v 0.2 2.1 -0.7
v 0.2 2.1 -0.8
v 0.2 2.1 -1.2
v 0.2 2.1 -1.3
v 0.2 2.1 -1.7
v 0.2 2.1 -1.8
v 0.2 2.1 -2.2
v 0.2 2.1 -2.3
v 0.2 2.2 2.4
v 0.2 2.2 1.6
v 0.2 2.2 1.4
v 0.2 2.2 0.6
v 0.2 2.2 0.4
v 0.2 2.2 -0.4
v 0.2 2.2 -0.6
v 0.2 2.2 -1.4
v 0.2 2.2 -1.6
v 0.2 2.2 -2.4
v -0.2 -2.2 2.5
v -0.2 2.3 2.5
v 0.1 -2.2 2.5
v 0.1 2.3 2.5
v 0.1 -2.1 2.4
v 0.1 0.6 2.4
v 0.1 0.8 2.4
v 0.1 2.2 2.4
v 0.2 -2.1 2.4
v 0.2 0.6 2.4
v 0.2 0.8 2.4
v 0.2 2.2 2.4
v 0.1 -2.1 1.4
v 0.1 -0.6 1.4
v 0.1 -0.4 1.4
v 0.1 2.2 1.4
v 0.2 -2.1 1.4
v 0.2 -0.6 1.4
v 0.2 -0.4 1.4
v 0.2 2.2 1.4
v 0.1 -2.1 0.4
v 0.1 2.2 0.4
v 0.2 -2.1 0.4
v 0.2 2.2 0.4
v 0.1 -2.1 -0.6
v 0.1 0.9 -0.6
v 0.1 1.1 -0.6
v 0.1 2.2 -0.6
v 0.2 -2.1 -0.6
v 0.2 0.9 -0.6
v 0.2 1.1 -0.6
v 0.2 2.2 -0.6
v 0.1 -2.1 -1.6
v 0.1 2.2 -1.6
v 0.2 -2.1 -1.6
v 0.2 2.2 -1.6
v 0.1 -2.1 1.6
v 0.1 0.6 1.6
v 0.1 0.8 1.6
v 0.1 2.2 1.6
v 0.2 -2.1 1.6
v 0.2 0.6 1.6
v 0.2 0.8 1.6
v 0.2 2.2 1.6
v 0.1 -2.1 0.6
v 0.1 -0.6 0.6
v 0.1 -0.4 0.6
v 0.1 2.2 0.6
v 0.2 -2.1 0.6
v 0.2 -0.6 0.6
v 0.2 -0.4 0.6
v 0.2 2.2 0.6
v 0.1 -2.1 -0.4
v 0.1 2.2 -0.4
v 0.2 -2.1 -0.4
v 0.2 2.2 -0.4
v 0.1 -2.1 -1.4
v 0.1 0.9 -1.4
v 0.1 1.1 -1.4
v 0.1 2.2 -1.4
v 0.2 -2.1 -1.4
v 0.2 0.9 -1.4
v 0.2 1.1 -1.4
v 0.2 2.2 -1.4
v 0.1 -2.1 -2.4
v 0.1 2.2 -2.4
v 0.2 -2.1 -2.4
v 0.2 2.2 -2.4
v -0.2 -2.2 -2.5
v -0.2 2.3 -2.5
v 0.1 -2.2 -2.5
v 0.1 2.3 -2.5
v -0.2 -2.2 2.5
v 0.1 -2.2 2.5
v -0.2 -2.2 -2.5
v 0.1 -2.2 -2.5
v 0.1 -2.1 2.4
v 0.2 -2.1 2.4
v 0.1 -2.1 1.6
v 0.2 -2.1 1.6
v 0.1 -2.1 1.4
v 0.2 -2.1 1.4
v 0.1 -2.1 0.6
v 0.2 -2.1 0.6
v 0.1 -2.1 0.4
v 0.2 -2.1 0.4
v 0.1 -2.1 -0.4
v 0.2 -2.1 -0.4
v 0.1 -2.1 -0.6
v 0.2 -2.1 -0.6
v 0.1 -2.1 -1.4
v 0.2 -2.1 -1.4
v 0.1 -2.1 -1.6
v 0.2 -2.1 -1.6
v 0.1 -2.1 -2.4
v 0.2 -2.1 -2.4
v 0.1 -0.4 1.4
v 0.2 -0.4 1.4
v 0.1 -0.4 0.6
v 0.2 -0.4 0.6
v 0.1 0.8 2.4
v 0.2 0.8 2.4
v 0.1 0.8 1.6
v 0.2 0.8 1.6
v 0.1 1.1 -0.6
v 0.2 1.1 -0.6
v 0.1 1.1 -1.4
v 0.2 1.1 -1.4
v 0.1 -0.6 1.4
v 0.2 -0.6 1.4
v 0.1 -0.6 0.6
v 0.2 -0.6 0.6
v 0.1 0.6 2.4
v 0.2 0.6 2.4
v 0.1 0.6 1.6
v 0.2 0.6 1.6
v 0.1 0.9 -0.6
v 0.2 0.9 -0.6
v 0.1 0.9 -1.4
v 0.2 0.9 -1.4
v 0.1 2.2 2.4
v 0.2 2.2 2.4
v 0.1 2.2 1.6
v 0.2 2.2 1.6
v 0.1 2.2 1.4
v 0.2 2.2 1.4
v 0.1 2.2 0.6
v 0.2 2.2 0.6
v 0.1 2.2 0.4
v 0.2 2.2 0.4
v 0.1 2.2 -0.4
v 0.2 2.2 -0.4
v 0.1 2.2 -0.6
v 0.2 2.2 -0.6
v 0.1 2.2 -1.4
v 0.2 2.2 -1.4
v 0.1 2.2 -1.6
v 0.2 2.2 -1.6
v 0.1 2.2 -2.4
v 0.2 2.2 -2.4
v -0.2 2.3 2.5
v 0.1 2.3 2.5
v -0.2 2.3 -2.5
v 0.1 2.3 -2.5

# faces
f 3/2/1 2/2/1 1/2/1
f 4/2/1 2/2/1 3/2/1
f 5/2/2 6/2/2 7/2/2
f 7/2/2 6/2/2 8/2/2
f 8/2/2 6/2/2 9/2/2
f 9/2/2 6/2/2 10/2/2
f 10/2/2 6/2/2 11/2/2
f 11/2/2 6/2/2 12/2/2
f 12/2/2 6/2/2 13/2/2
f 13/2/2 6/2/2 14/2/2
f 14/2/2 6/2/2 15/2/2
f 15/2/2 6/2/2 16/2/2
f 8/2/2 9/2/2 17/2/2
f 10/2/2 11/2/2 18/2/2
f 8/2/2 17/2/2 19/2/2
f 17/2/2 18/2/2 19/2/2
f 18/2/2 11/2/2 20/2/2
f 19/2/2 18/2/2 20/2/2
f 5/2/2 7/2/2 21/2/2
f 8/2/2 19/2/2 22/2/2
f 5/2/2 21/2/2 23/2/2
f 21/2/2 22/2/2 23/2/2
f 22/2/2 19/2/2 24/2/2
f 23/2/2 22/2/2 24/2/2
f 12/2/2 13/2/2 25/2/2
f 14/2/2 15/2/2 26/2/2
f 12/2/2 25/2/2 27/2/2
f 25/2/2 26/2/2 27/2/2
f 26/2/2 15/2/2 28/2/2
f 27/2/2 26/2/2 28/2/2
f 5/2/2 23/2/2 29/2/2
f 24/2/2 19/2/2 30/2/2
f 30/2/2 19/2/2 31/2/2
f 20/2/2 11/2/2 32/2/2
f 32/2/2 11/2/2 33/2/2
f 12/2/2 27/2/2 34/2/2
f 34/2/2 27/2/2 35/2/2
f 28/2/2 15/2/2 36/2/2
f 36/2/2 15/2/2 37/2/2
f 16/2/2 6/2/2 38/2/2
f 30/2/2 31/2/2 39/2/2
f 37/2/2 38/2/2 39/2/2
f 36/2/2 37/2/2 39/2/2
f 32/2/2 33/2/2 39/2/2
f 35/2/2 36/2/2 39/2/2
f 5/2/2 29/2/2 39/2/2
f 33/2/2 34/2/2 39/2/2
f 34/2/2 35/2/2 39/2/2
f 31/2/2 32/2/2 39/2/2
f 29/2/2 30/2/2 39/2/2
f 38/2/2 6/2/2 40/2/2
f 39/2/2 38/2/2 40/2/2
f 41/1/2 42/1/2 51/1/2
f 51/1/2 42/1/2 52/1/2
f 52/1/2 42/1/2 53/1/2
f 53/1/2 42/1/2 54/1/2
f 43/1/2 44/1/2 55/1/2
f 55/1/2 44/1/2 56/1/2
f 56/1/2 44/1/2 57/1/2
f 57/1/2 44/1/2 58/1/2
f 45/1/2 46/1/2 59/1/2
f 59/1/2 46/1/2 60/1/2
f 60/1/2 46/1/2 61/1/2
f 61/1/2 46/1/2 62/1/2
f 47/1/2 48/1/2 63/1/2
f 63/1/2 48/1/2 64/1/2
f 49/1/2 50/1/2 65/1/2
f 65/1/2 50/1/2 66/1/2
f 66/1/2 50/1/2 67/1/2
f 67/1/2 50/1/2 68/1/2
f 41/1/2 51/1/2 69/1/2
f 51/2/2 52/2/2 69/2/2
f 52/1/2 53/1/2 70/1/2
f 69/2/2 52/2/2 70/2/2
f 53/2/2 54/2/2 71/2/2
f 70/1/2 53/1/2 71/1/2
f 54/1/2 42/1/2 72/1/2
f 71/2/2 54/2/2 72/2/2
f 43/1/2 55/1/2 73/1/2
f 55/2/2 56/2/2 73/2/2
f 56/1/2 57/1/2 74/1/2
f 73/2/2 56/2/2 74/2/2
f 57/2/2 58/2/2 75/2/2
f 74/1/2 57/1/2 75/1/2
f 58/1/2 44/1/2 76/1/2
f 75/2/2 58/2/2 76/2/2
f 45/1/2 59/1/2 77/1/2
f 59/2/2 60/2/2 77/2/2
f 60/1/2 61/1/2 78/1/2
f 77/2/2 60/2/2 78/2/2
f 61/2/2 62/2/2 79/2/2
f 78/1/2 61/1/2 79/1/2
f 62/1/2 46/1/2 80/1/2
f 79/2/2 62/2/2 80/2/2
f 47/1/2 63/1/2 81/1/2
f 63/2/2 64/2/2 81/2/2
f 64/1/2 48/1/2 82/1/2
f 81/2/2 64/2/2 82/2/2
f 49/1/2 65/1/2 83/1/2
f 65/2/2 66/2/2 83/2/2
f 66/1/2 67/1/2 84/1/2
f 83/2/2 66/2/2 84/2/2
f 67/2/2 68/2/2 85/2/2
f 84/1/2 67/1/2 85/1/2
f 68/1/2 50/1/2 86/1/2
f 85/2/2 68/2/2 86/2/2
f 74/1/2 75/1/2 87/1/2
f 43/1/2 73/1/2 87/1/2
f 73/1/2 74/1/2 87/1/2
f 75/1/2 76/1/2 87/1/2
f 87/1/2 76/1/2 88/1/2
f 88/1/2 76/1/2 89/1/2
f 76/1/2 44/1/2 90/1/2
f 89/1/2 76/1/2 90/1/2
f 43/1/2 87/1/2 91/1/2
f 87/2/2 88/2/2 91/2/2
f 88/1/2 89/1/2 92/1/2
f 91/2/2 88/2/2 92/2/2
f 89/2/2 90/2/2 93/2/2
f 92/1/2 89/1/2 93/1/2
f 90/1/2 44/1/2 94/1/2
f 93/2/2 90/2/2 94/2/2
f 43/1/2 91/1/2 95/1/2
f 92/1/2 93/1/2 95/1/2
f 93/1/2 94/1/2 95/1/2
f 91/1/2 92/1/2 95/1/2
f 94/1/2 44/1/2 96/1/2
f 95/1/2 94/1/2 96/1/2
f 97/1/2 98/1/2 99/1/2
f 99/1/2 98/1/2 100/1/2
f 100/1/2 98/1/2 101/1/2
f 101/1/2 98/1/2 102/1/2
f 97/1/2 99/1/2 103/1/2
f 99/2/2 100/2/2 103/2/2
f 100/1/2 101/1/2 104/1/2
f 103/2/2 100/2/2 104/2/2
f 101/2/2 102/2/2 105/2/2
f 104/1/2 101/1/2 105/1/2
f 102/1/2 98/1/2 106/1/2
f 105/2/2 102/2/2 106/2/2
f 70/1/2 71/1/2 107/1/2
f 41/1/2 69/1/2 107/1/2
f 69/1/2 70/1/2 107/1/2
f 71/1/2 72/1/2 107/1/2
f 107/1/2 72/1/2 108/1/2
f 108/1/2 72/1/2 109/1/2
f 72/1/2 42/1/2 110/1/2
f 109/1/2 72/1/2 110/1/2
f 41/1/2 107/1/2 111/1/2
f 107/2/2 108/2/2 111/2/2
f 108/1/2 109/1/2 112/1/2
f 111/2/2 108/2/2 112/2/2
f 109/2/2 110/2/2 113/2/2
f 112/1/2 109/1/2 113/1/2
f 110/1/2 42/1/2 114/1/2
f 113/2/2 110/2/2 114/2/2
f 41/1/2 111/1/2 115/1/2
f 112/1/2 113/1/2 115/1/2
f 113/1/2 114/1/2 115/1/2
f 111/1/2 112/1/2 115/1/2
f 114/1/2 42/1/2 116/1/2
f 115/1/2 114/1/2 116/1/2
f 47/1/2 81/1/2 117/1/2
f 81/1/2 82/1/2 117/1/2
f 117/1/2 82/1/2 118/1/2
f 118/1/2 82/1/2 119/1/2
f 82/1/2 48/1/2 120/1/2
f 119/1/2 82/1/2 120/1/2
f 47/1/2 117/1/2 123/1/2
f 117/2/2 118/2/2 123/2/2
f 118/1/2 119/1/2 124/1/2
f 123/2/2 118/2/2 124/2/2
f 119/2/2 120/2/2 125/2/2
f 124/1/2 119/1/2 125/1/2
f 120/1/2 48/1/2 126/1/2
f 125/2/2 120/2/2 126/2/2
f 121/1/2 122/1/2 127/1/2
f 127/1/2 122/1/2 128/1/2
f 128/1/2 122/1/2 129/1/2
f 129/1/2 122/1/2 130/1/2
f 47/1/2 123/1/2 131/1/2
f 124/1/2 125/1/2 131/1/2
f 123/1/2 124/1/2 131/1/2
f 125/1/2 126/1/2 131/1/2
f 126/1/2 48/1/2 132/1/2
f 131/1/2 126/1/2 132/1/2
f 127/2/2 128/2/2 133/2/2
f 121/1/2 127/1/2 133/1/2
f 128/1/2 129/1/2 134/1/2
f 133/2/2 128/2/2 134/2/2
f 129/2/2 130/2/2 135/2/2
f 134/1/2 129/1/2 135/1/2
f 130/1/2 122/1/2 136/1/2
f 135/2/2 130/2/2 136/2/2
f 137/1/2 138/1/2 139/1/2
f 139/1/2 138/1/2 140/1/2
f 137/1/2 139/1/2 141/1/2
f 139/2/2 140/2/2 141/2/2
f 140/1/2 138/1/2 142/1/2
f 141/2/2 140/2/2 142/2/2
f 134/1/2 135/1/2 143/1/2
f 133/1/2 134/1/2 143/1/2
f 121/1/2 133/1/2 143/1/2
f 135/1/2 136/1/2 143/1/2
f 143/1/2 136/1/2 144/1/2
f 144/1/2 136/1/2 145/1/2
f 136/1/2 122/1/2 146/1/2
f 145/1/2 136/1/2 146/1/2
f 104/1/2 105/1/2 147/1/2
f 105/1/2 106/1/2 147/1/2
f 97/1/2 103/1/2 147/1/2
f 103/1/2 104/1/2 147/1/2
f 147/1/2 106/1/2 148/1/2
f 148/1/2 106/1/2 149/1/2
f 106/1/2 98/1/2 150/1/2
f 149/1/2 106/1/2 150/1/2
f 78/1/2 79/1/2 151/1/2
f 45/1/2 77/1/2 151/1/2
f 77/1/2 78/1/2 151/1/2
f 79/1/2 80/1/2 151/1/2
f 151/1/2 80/1/2 152/1/2
f 152/1/2 80/1/2 153/1/2
f 80/1/2 46/1/2 154/1/2
f 153/1/2 80/1/2 154/1/2
f 141/1/2 142/1/2 155/1/2
f 137/1/2 141/1/2 155/1/2
f 155/1/2 142/1/2 156/1/2
f 156/1/2 142/1/2 157/1/2
f 142/1/2 138/1/2 158/1/2
f 157/1/2 142/1/2 158/1/2
f 84/1/2 85/1/2 159/1/2
f 83/1/2 84/1/2 159/1/2
f 85/1/2 86/1/2 159/1/2
f 49/1/2 83/1/2 159/1/2
f 159/1/2 86/1/2 160/1/2
f 160/1/2 86/1/2 161/1/2
f 86/1/2 50/1/2 162/1/2
f 161/1/2 86/1/2 162/1/2
f 143/2/2 144/2/2 163/2/2
f 121/1/2 143/1/2 163/1/2
f 144/1/2 145/1/2 164/1/2
f 163/2/2 144/2/2 164/2/2
f 145/2/2 146/2/2 165/2/2
f 164/1/2 145/1/2 165/1/2
f 146/1/2 122/1/2 166/1/2
f 165/2/2 146/2/2 166/2/2
f 147/2/2 148/2/2 167/2/2
f 97/1/2 147/1/2 167/1/2
f 148/1/2 149/1/2 168/1/2
f 167/2/2 148/2/2 168/2/2
f 149/2/2 150/2/2 169/2/2
f 168/1/2 149/1/2 169/1/2
f 150/1/2 98/1/2 170/1/2
f 169/2/2 150/2/2 170/2/2
f 151/2/2 152/2/2 171/2/2
f 45/1/2 151/1/2 171/1/2
f 152/1/2 153/1/2 172/1/2
f 171/2/2 152/2/2 172/2/2
f 153/2/2 154/2/2 173/2/2
f 172/1/2 153/1/2 173/1/2
f 154/1/2 46/1/2 174/1/2
f 173/2/2 154/2/2 174/2/2
f 155/2/2 156/2/2 175/2/2
f 137/1/2 155/1/2 175/1/2
f 156/1/2 157/1/2 176/1/2
f 175/2/2 156/2/2 176/2/2
f 157/2/2 158/2/2 177/2/2
f 176/1/2 157/1/2 177/1/2
f 158/1/2 138/1/2 178/1/2
f 177/2/2 158/2/2 178/2/2
f 49/1/2 159/1/2 179/1/2
f 159/2/2 160/2/2 179/2/2
f 160/1/2 161/1/2 180/1/2
f 179/2/2 160/2/2 180/2/2
f 161/2/2 162/2/2 181/2/2
f 180/1/2 161/1/2 181/1/2
f 162/1/2 50/1/2 182/1/2
f 181/2/2 162/2/2 182/2/2
f 164/1/2 165/1/2 183/1/2
f 163/1/2 164/1/2 183/1/2
f 165/1/2 166/1/2 183/1/2
f 121/1/2 163/1/2 183/1/2
f 166/1/2 122/1/2 184/1/2
f 183/1/2 166/1/2 184/1/2
f 97/1/2 167/1/2 185/1/2
f 168/1/2 169/1/2 185/1/2
f 169/1/2 170/1/2 185/1/2
f 167/1/2 168/1/2 185/1/2
f 170/1/2 98/1/2 186/1/2
f 185/1/2 170/1/2 186/1/2
f 173/1/2 174/1/2 187/1/2
f 45/1/2 171/1/2 187/1/2
f 171/1/2 172/1/2 187/1/2
f 172/1/2 173/1/2 187/1/2
f 174/1/2 46/1/2 188/1/2
f 187/1/2 174/1/2 188/1/2
f 176/1/2 177/1/2 189/1/2
f 175/1/2 176/1/2 189/1/2
f 177/1/2 178/1/2 189/1/2
f 137/1/2 175/1/2 189/1/2
f 178/1/2 138/1/2 190/1/2
f 189/1/2 178/1/2 190/1/2
f 49/1/2 179/1/2 191/1/2
f 181/1/2 182/1/2 191/1/2
f 180/1/2 181/1/2 191/1/2
f 179/1/2 180/1/2 191/1/2
f 182/1/2 50/1/2 192/1/2
f 191/1/2 182/1/2 192/1/2
f 195/2/3 194/2/3 193/2/3
f 196/2/3 194/2/3 195/2/3
f 201/1/3 198/1/3 197/1/3
f 202/1/3 198/1/3 201/1/3
f 203/1/3 200/1/3 199/1/3
f 204/1/3 200/1/3 203/1/3
f 209/1/3 206/1/3 205/1/3
f 210/1/3 206/1/3 209/1/3
f 211/1/3 208/1/3 207/1/3
f 212/1/3 208/1/3 211/1/3
f 215/1/3 214/1/3 213/1/3
f 216/1/3 214/1/3 215/1/3
f 221/1/3 218/1/3 217/1/3
f 222/1/3 218/1/3 221/1/3
f 223/1/3 220/1/3 219/1/3
f 224/1/3 220/1/3 223/1/3
f 227/1/3 226/1/3 225/1/3
f 228/1/3 226/1/3 227/1/3
f 229/1/4 230/1/4 233/1/4
f 233/1/4 230/1/4 234/1/4
f 231/1/4 232/1/4 235/1/4
f 235/1/4 232/1/4 236/1/4
f 237/1/4 238/1/4 241/1/4
f 241/1/4 238/1/4 242/1/4
f 239/1/4 240/1/4 243/1/4
f 243/1/4 240/1/4 244/1/4
f 245/1/4 246/1/4 247/1/4
f 247/1/4 246/1/4 248/1/4
f 249/1/4 250/1/4 253/1/4
f 253/1/4 250/1/4 254/1/4
f 251/1/4 252/1/4 255/1/4
f 255/1/4 252/1/4 256/1/4
f 257/1/4 258/1/4 259/1/4
f 259/1/4 258/1/4 260/1/4
f 261/2/4 262/2/4 263/2/4
f 263/2/4 262/2/4 264/2/4
f 267/2/5 266/2/5 265/2/5
f 268/2/5 266/2/5 267/2/5
f 271/1/5 270/1/5 269/1/5
f 272/1/5 270/1/5 271/1/5
f 275/1/5 274/1/5 273/1/5
f 276/1/5 274/1/5 275/1/5
f 279/1/5 278/1/5 277/1/5
f 280/1/5 278/1/5 279/1/5
f 283/1/5 282/1/5 281/1/5
f 284/1/5 282/1/5 283/1/5
f 287/1/5 286/1/5 285/1/5
f 288/1/5 286/1/5 287/1/5
f 291/1/5 290/1/5 289/1/5
f 292/1/5 290/1/5 291/1/5
f 295/1/5 294/1/5 293/1/5
f 296/1/5 294/1/5 295/1/5
f 299/1/5 298/1/5 297/1/5
f 300/1/5 298/1/5 299/1/5
f 301/1/6 302/1/6 303/1/6
f 303/1/6 302/1/6 304/1/6
f 305/1/6 306/1/6 307/1/6
f 307/1/6 306/1/6 308/1/6
f 309/1/6 310/1/6 311/1/6
f 311/1/6 310/1/6 312/1/6
f 313/1/6 314/1/6 315/1/6
f 315/1/6 314/1/6 316/1/6
f 317/1/6 318/1/6 319/1/6
f 319/1/6 318/1/6 320/1/6
f 321/1/6 322/1/6 323/1/6
f 323/1/6 322/1/6 324/1/6
f 325/1/6 326/1/6 327/1/6
f 327/1/6 326/1/6 328/1/6
f 329/1/6 330/1/6 331/1/6
f 331/1/6 330/1/6 332/1/6
f 333/2/6 334/2/6 335/2/6
f 335/2/6 334/2/6 336/2/6
