# MagicaVoxel @ Ephtracy

# group
o 

# material
mtllib Corner.mtl
usemtl palette

# normals
vn -1 0 0
vn 1 0 0
vn 0 0 1
vn 0 0 -1
vn 0 -1 0
vn 0 1 0

# texcoords
vt 0.970703 0.5
vt 0.974609 0.5
vt 0.978516 0.5

# verts
v -0.2 0 0.2
v -0.2 0 -0.1
v -0.2 0 -0.2
v -0.2 0.2 0.1
v -0.2 0.2 0
v -0.2 0.3 0.2
v -0.2 0.3 0.1
v -0.2 0.3 0
v -0.2 0.3 -0.1
v -0.2 0.4 -0.1
v -0.2 0.4 -0.2
v -0.2 0.5 0
v -0.2 0.5 -0.1
v -0.2 0.7 0.2
v -0.2 0.7 0.1
v -0.2 0.9 0
v -0.2 0.9 -0.2
v -0.2 1 0.2
v -0.2 1 0.1
v -0.2 1 0
v -0.2 1 -0.1
v -0.2 1 -0.2
v -0.2 1.1 0
v -0.2 1.1 -0.1
v -0.2 1.2 0.2
v -0.2 1.2 0.1
v -0.2 1.3 0.2
v -0.2 1.3 0.1
v -0.2 1.3 0
v -0.2 1.3 -0.1
v -0.2 1.5 0.2
v -0.2 1.5 0.1
v -0.2 1.6 0.1
v -0.2 1.6 0
v -0.2 1.8 0.1
v -0.2 1.8 0
v -0.2 1.9 0.2
v -0.2 1.9 0.1
v -0.2 2.1 0
v -0.2 2.1 -0.1
v -0.2 2.2 0.1
v -0.2 2.2 0
v -0.2 2.3 0
v -0.2 2.3 -0.1
v -0.2 2.4 0
v -0.2 2.4 -0.1
v -0.2 2.5 -0.1
v -0.2 2.5 -0.2
v -0.2 2.7 0.2
v -0.2 2.7 0.1
v -0.2 2.7 0
v -0.2 2.9 0.2
v -0.2 2.9 0
v -0.2 2.9 -0.1
v -0.2 2.9 -0.2
v -0.2 3 0.1
v -0.2 3 0
v -0.2 3.1 0
v -0.2 3.1 -0.1
v -0.2 3.2 0.1
v -0.2 3.2 0
v -0.2 3.3 0.2
v -0.2 3.3 0.1
v -0.2 3.3 -0.1
v -0.2 3.3 -0.2
v -0.2 3.6 0.2
v -0.2 3.6 0
v -0.2 3.8 0
v -0.2 3.8 -0.1
v -0.2 4.1 -0.1
v -0.2 4.1 -0.2
v -0.2 4.2 0.2
v -0.2 4.2 0.1
v -0.2 4.2 0
v -0.2 4.2 -0.1
v -0.2 4.3 0.2
v -0.2 4.3 0.1
v -0.2 4.3 0
v -0.2 4.3 -0.1
v -0.2 4.3 -0.2
v -0.2 4.4 0.1
v -0.2 4.4 -0.1
v -0.2 4.5 0.2
v -0.2 4.5 -0.2
v 0.2 0 0.2
v 0.2 0 -0.2
v 0.2 0.2 0.2
v 0.2 0.2 0
v 0.2 0.3 -0.1
v 0.2 0.3 -0.2
v 0.2 0.4 0.2
v 0.2 0.4 0.1
v 0.2 0.5 0.1
v 0.2 0.5 0
v 0.2 0.5 -0.1
v 0.2 0.7 0
v 0.2 0.7 -0.1
v 0.2 0.8 0.1
v 0.2 0.8 0
v 0.2 0.9 -0.1
v 0.2 0.9 -0.2
v 0.2 1.1 0.1
v 0.2 1.1 0
v 0.2 1.2 0.2
v 0.2 1.2 0.1
v 0.2 1.2 0
v 0.2 1.2 -0.1
v 0.2 1.3 0.1
v 0.2 1.3 0
v 0.2 1.4 0
v 0.2 1.4 -0.1
v 0.2 1.5 0.1
v 0.2 1.5 0
v 0.2 1.6 0.2
v 0.2 1.6 0.1
v 0.2 2 0.2
v 0.2 2 0.1
v 0.2 2 0
v 0.2 2 -0.1
v 0.2 2.1 0.1
v 0.2 2.1 0
v 0.2 2.3 0
v 0.2 2.3 -0.1
v 0.2 2.7 0
v 0.2 2.7 -0.1
v 0.2 2.8 -0.1
v 0.2 2.8 -0.2
v 0.2 2.9 0.2
v 0.2 2.9 0.1
v 0.2 3 0.2
v 0.2 3 0.1
v 0.2 3.1 -0.1
v 0.2 3.1 -0.2
v 0.2 3.2 0.2
v 0.2 3.2 0.1
v 0.2 3.3 0.1
v 0.2 3.3 0
v 0.2 3.4 0.2
v 0.2 3.4 0
v 0.2 3.6 0
v 0.2 3.6 -0.1
v 0.2 3.7 0.1
v 0.2 3.7 0
v 0.2 3.7 -0.1
v 0.2 3.8 0.2
v 0.2 3.8 0.1
v 0.2 4.1 0
v 0.2 4.1 -0.1
v 0.2 4.2 0.1
v 0.2 4.2 0
v 0.2 4.5 0.2
v 0.2 4.5 0
v 0.2 4.5 -0.1
v 0.2 4.5 -0.2
v -0.2 0 0.2
v -0.2 0.3 0.2
v -0.2 0.7 0.2
v -0.2 1 0.2
v -0.2 1.2 0.2
v -0.2 1.3 0.2
v -0.2 1.5 0.2
v -0.2 1.9 0.2
v -0.2 2.7 0.2
v -0.2 2.9 0.2
v -0.2 3.3 0.2
v -0.2 3.6 0.2
v -0.2 4.2 0.2
v -0.2 4.3 0.2
v -0.2 4.5 0.2
v -0.1 0.3 0.2
v -0.1 0.7 0.2
v -0.1 0.9 0.2
v -0.1 1 0.2
v -0.1 1.1 0.2
v -0.1 1.2 0.2
v -0.1 1.3 0.2
v -0.1 1.4 0.2
v -0.1 1.5 0.2
v -0.1 1.9 0.2
v -0.1 2.2 0.2
v -0.1 2.7 0.2
v -0.1 2.9 0.2
v -0.1 3.3 0.2
v -0.1 3.6 0.2
v -0.1 3.8 0.2
v -0.1 3.9 0.2
v -0.1 4.3 0.2
v -0.1 4.5 0.2
v 0 0 0.2
v 0 0.1 0.2
v 0 0.4 0.2
v 0 0.9 0.2
v 0 1.1 0.2
v 0 1.4 0.2
v 0 1.9 0.2
v 0 2.1 0.2
v 0 2.2 0.2
v 0 2.3 0.2
v 0 2.7 0.2
v 0 2.8 0.2
v 0 2.9 0.2
v 0 3.3 0.2
v 0 3.6 0.2
v 0 3.7 0.2
v 0 3.9 0.2
v 0 4.2 0.2
v 0 4.4 0.2
v 0.1 0 0.2
v 0.1 0.1 0.2
v 0.1 0.2 0.2
v 0.1 0.4 0.2
v 0.1 1.1 0.2
v 0.1 1.2 0.2
v 0.1 1.6 0.2
v 0.1 1.9 0.2
v 0.1 2 0.2
v 0.1 2.1 0.2
v 0.1 2.2 0.2
v 0.1 2.3 0.2
v 0.1 2.7 0.2
v 0.1 2.8 0.2
v 0.1 3 0.2
v 0.1 3.2 0.2
v 0.1 3.4 0.2
v 0.1 3.7 0.2
v 0.1 3.8 0.2
v 0.1 4.2 0.2
v 0.1 4.4 0.2
v 0.1 4.5 0.2
v 0.2 0 0.2
v 0.2 0.2 0.2
v 0.2 0.4 0.2
v 0.2 1.2 0.2
v 0.2 1.6 0.2
v 0.2 2 0.2
v 0.2 2.9 0.2
v 0.2 3 0.2
v 0.2 3.2 0.2
v 0.2 3.4 0.2
v 0.2 3.8 0.2
v 0.2 4.5 0.2
v -0.2 0 -0.2
v -0.2 0.4 -0.2
v -0.2 0.9 -0.2
v -0.2 1 -0.2
v -0.2 2.5 -0.2
v -0.2 2.9 -0.2
v -0.2 3.3 -0.2
v -0.2 4.1 -0.2
v -0.2 4.3 -0.2
v -0.2 4.5 -0.2
v -0.1 0 -0.2
v -0.1 0.4 -0.2
v -0.1 0.6 -0.2
v -0.1 0.9 -0.2
v -0.1 1 -0.2
v -0.1 1.1 -0.2
v -0.1 1.4 -0.2
v -0.1 1.5 -0.2
v -0.1 1.6 -0.2
v -0.1 2 -0.2
v -0.1 2.3 -0.2
v -0.1 2.5 -0.2
v -0.1 2.9 -0.2
v -0.1 3.1 -0.2
v -0.1 3.3 -0.2
v -0.1 3.4 -0.2
v -0.1 3.5 -0.2
v -0.1 3.7 -0.2
v -0.1 3.8 -0.2
v -0.1 3.9 -0.2
v -0.1 4.1 -0.2
v -0.1 4.2 -0.2
v -0.1 4.3 -0.2
v 0 0.2 -0.2
v 0 0.3 -0.2
v 0 0.6 -0.2
v 0 0.8 -0.2
v 0 0.9 -0.2
v 0 1 -0.2
v 0 1.1 -0.2
v 0 1.4 -0.2
v 0 1.6 -0.2
v 0 2 -0.2
v 0 2.3 -0.2
v 0 2.4 -0.2
v 0 3 -0.2
v 0 3.1 -0.2
v 0 3.4 -0.2
v 0 3.8 -0.2
v 0 3.9 -0.2
v 0 4 -0.2
v 0 4.2 -0.2
v 0.1 0.2 -0.2
v 0.1 0.3 -0.2
v 0.1 0.8 -0.2
v 0.1 0.9 -0.2
v 0.1 1 -0.2
v 0.1 1.5 -0.2
v 0.1 2.4 -0.2
v 0.1 2.8 -0.2
v 0.1 3 -0.2
v 0.1 3.1 -0.2
v 0.1 3.5 -0.2
v 0.1 3.7 -0.2
v 0.1 4 -0.2
v 0.2 0 -0.2
v 0.2 0.3 -0.2
v 0.2 0.9 -0.2
v 0.2 2.8 -0.2
v 0.2 3.1 -0.2
v 0.2 4.5 -0.2
v -0.2 0 0.2
v 0 0 0.2
v 0.1 0 0.2
v 0.2 0 0.2
v 0 0 0.1
v 0.1 0 0.1
v -0.2 0 -0.1
v -0.1 0 -0.1
v -0.2 0 -0.2
v -0.1 0 -0.2
v 0.2 0 -0.2
v -0.2 4.5 0.2
v -0.1 4.5 0.2
v 0.1 4.5 0.2
v 0.2 4.5 0.2
v -0.1 4.5 0.1
v 0.1 4.5 0.1
v 0.1 4.5 0
v 0.2 4.5 0
v 0.1 4.5 -0.1
v 0.2 4.5 -0.1
v -0.2 4.5 -0.2
v 0.2 4.5 -0.2

# faces
f 4/1/1 2/1/1 1/1/1
f 5/1/1 2/1/1 4/1/1
f 6/1/1 4/1/1 1/1/1
f 7/2/1 5/2/1 4/2/1
f 7/1/1 4/1/1 6/1/1
f 8/1/1 2/1/1 5/1/1
f 8/2/1 5/2/1 7/2/1
f 9/2/1 3/2/1 2/2/1
f 9/1/1 2/1/1 8/1/1
f 10/2/1 8/2/1 7/2/1
f 10/2/1 3/2/1 9/2/1
f 10/2/1 9/2/1 8/2/1
f 11/2/1 3/2/1 10/2/1
f 12/2/1 10/2/1 7/2/1
f 13/1/1 11/1/1 10/1/1
f 13/2/1 10/2/1 12/2/1
f 14/3/1 7/3/1 6/3/1
f 15/2/1 12/2/1 7/2/1
f 15/3/1 7/3/1 14/3/1
f 16/1/1 13/1/1 12/1/1
f 16/2/1 12/2/1 15/2/1
f 17/1/1 11/1/1 13/1/1
f 17/1/1 13/1/1 16/1/1
f 18/1/1 15/1/1 14/1/1
f 19/2/1 16/2/1 15/2/1
f 19/1/1 15/1/1 18/1/1
f 20/3/1 17/3/1 16/3/1
f 20/2/1 16/2/1 19/2/1
f 21/3/1 17/3/1 20/3/1
f 22/3/1 17/3/1 21/3/1
f 23/3/1 19/3/1 18/3/1
f 23/3/1 20/3/1 19/3/1
f 23/3/1 21/3/1 20/3/1
f 24/2/1 22/2/1 21/2/1
f 24/3/1 21/3/1 23/3/1
f 25/3/1 23/3/1 18/3/1
f 26/3/1 23/3/1 25/3/1
f 27/2/1 26/2/1 25/2/1
f 28/3/1 23/3/1 26/3/1
f 28/2/1 26/2/1 27/2/1
f 29/2/1 24/2/1 23/2/1
f 29/3/1 23/3/1 28/3/1
f 30/2/1 22/2/1 24/2/1
f 30/2/1 24/2/1 29/2/1
f 31/3/1 29/3/1 28/3/1
f 31/3/1 28/3/1 27/3/1
f 32/3/1 29/3/1 31/3/1
f 33/2/1 32/2/1 31/2/1
f 33/3/1 29/3/1 32/3/1
f 34/1/1 30/1/1 29/1/1
f 34/3/1 29/3/1 33/3/1
f 35/2/1 33/2/1 31/2/1
f 35/2/1 34/2/1 33/2/1
f 36/1/1 30/1/1 34/1/1
f 36/2/1 34/2/1 35/2/1
f 37/2/1 35/2/1 31/2/1
f 38/1/1 36/1/1 35/1/1
f 38/2/1 35/2/1 37/2/1
f 39/1/1 30/1/1 36/1/1
f 39/1/1 36/1/1 38/1/1
f 39/1/1 38/1/1 37/1/1
f 40/2/1 22/2/1 30/2/1
f 40/1/1 30/1/1 39/1/1
f 41/1/1 39/1/1 37/1/1
f 42/3/1 40/3/1 39/3/1
f 42/1/1 39/1/1 41/1/1
f 43/3/1 42/3/1 41/3/1
f 43/3/1 40/3/1 42/3/1
f 44/2/1 22/2/1 40/2/1
f 44/3/1 40/3/1 43/3/1
f 45/3/1 43/3/1 41/3/1
f 45/1/1 44/1/1 43/1/1
f 46/2/1 22/2/1 44/2/1
f 46/1/1 44/1/1 45/1/1
f 47/2/1 46/2/1 45/2/1
f 47/2/1 22/2/1 46/2/1
f 48/2/1 22/2/1 47/2/1
f 49/1/1 41/1/1 37/1/1
f 50/3/1 45/3/1 41/3/1
f 50/1/1 41/1/1 49/1/1
f 51/2/1 47/2/1 45/2/1
f 51/3/1 45/3/1 50/3/1
f 52/2/1 50/2/1 49/2/1
f 52/2/1 51/2/1 50/2/1
f 53/2/1 47/2/1 51/2/1
f 53/2/1 51/2/1 52/2/1
f 54/1/1 48/1/1 47/1/1
f 54/2/1 47/2/1 53/2/1
f 55/1/1 48/1/1 54/1/1
f 56/1/1 53/1/1 52/1/1
f 57/2/1 54/2/1 53/2/1
f 57/1/1 53/1/1 56/1/1
f 57/2/1 55/2/1 54/2/1
f 58/3/1 57/3/1 56/3/1
f 58/2/1 55/2/1 57/2/1
f 59/2/1 55/2/1 58/2/1
f 60/1/1 56/1/1 52/1/1
f 60/3/1 58/3/1 56/3/1
f 60/3/1 59/3/1 58/3/1
f 61/3/1 59/3/1 60/3/1
f 62/1/1 60/1/1 52/1/1
f 63/2/1 61/2/1 60/2/1
f 63/1/1 60/1/1 62/1/1
f 64/2/1 55/2/1 59/2/1
f 64/3/1 59/3/1 61/3/1
f 65/2/1 55/2/1 64/2/1
f 66/2/1 63/2/1 62/2/1
f 67/2/1 61/2/1 63/2/1
f 67/2/1 63/2/1 66/2/1
f 67/3/1 64/3/1 61/3/1
f 68/1/1 67/1/1 66/1/1
f 68/3/1 64/3/1 67/3/1
f 69/1/1 65/1/1 64/1/1
f 69/3/1 64/3/1 68/3/1
f 70/1/1 69/1/1 68/1/1
f 70/1/1 65/1/1 69/1/1
f 71/1/1 65/1/1 70/1/1
f 72/1/1 68/1/1 66/1/1
f 72/1/1 70/1/1 68/1/1
f 73/1/1 70/1/1 72/1/1
f 74/1/1 70/1/1 73/1/1
f 75/3/1 71/3/1 70/3/1
f 75/1/1 70/1/1 74/1/1
f 76/3/1 73/3/1 72/3/1
f 77/1/1 74/1/1 73/1/1
f 77/3/1 73/3/1 76/3/1
f 78/3/1 75/3/1 74/3/1
f 78/1/1 74/1/1 77/1/1
f 79/3/1 71/3/1 75/3/1
f 79/3/1 75/3/1 78/3/1
f 80/3/1 71/3/1 79/3/1
f 81/3/1 78/3/1 77/3/1
f 81/1/1 77/1/1 76/1/1
f 81/3/1 79/3/1 78/3/1
f 82/1/1 80/1/1 79/1/1
f 82/3/1 79/3/1 81/3/1
f 83/1/1 81/1/1 76/1/1
f 83/1/1 82/1/1 81/1/1
f 84/1/1 80/1/1 82/1/1
f 84/1/1 82/1/1 83/1/1
f 85/1/2 86/1/2 87/1/2
f 87/1/2 86/1/2 88/1/2
f 88/1/2 86/1/2 89/1/2
f 89/1/2 86/1/2 90/1/2
f 87/2/2 88/2/2 91/2/2
f 91/2/2 88/2/2 92/2/2
f 91/3/2 92/3/2 93/3/2
f 92/2/2 88/2/2 93/2/2
f 88/1/2 89/1/2 94/1/2
f 93/2/2 88/2/2 94/2/2
f 89/3/2 90/3/2 95/3/2
f 94/1/2 89/1/2 95/1/2
f 93/3/2 94/3/2 96/3/2
f 94/2/2 95/2/2 96/2/2
f 95/3/2 90/3/2 97/3/2
f 96/2/2 95/2/2 97/2/2
f 91/3/2 93/3/2 98/3/2
f 93/3/2 96/3/2 98/3/2
f 96/3/2 97/3/2 98/3/2
f 98/3/2 97/3/2 99/3/2
f 97/3/2 90/3/2 100/3/2
f 99/3/2 97/3/2 100/3/2
f 100/3/2 90/3/2 101/3/2
f 98/1/2 99/1/2 102/1/2
f 91/3/2 98/3/2 102/3/2
f 99/3/2 100/3/2 103/3/2
f 102/1/2 99/1/2 103/1/2
f 91/3/2 102/3/2 104/3/2
f 102/3/2 103/3/2 104/3/2
f 104/3/2 103/3/2 105/3/2
f 103/3/2 100/3/2 106/3/2
f 105/3/2 103/3/2 106/3/2
f 100/1/2 101/1/2 107/1/2
f 106/3/2 100/3/2 107/3/2
f 105/3/2 106/3/2 108/3/2
f 104/1/2 105/1/2 108/1/2
f 106/1/2 107/1/2 109/1/2
f 108/3/2 106/3/2 109/3/2
f 108/2/2 109/2/2 110/2/2
f 109/1/2 107/1/2 110/1/2
f 107/1/2 101/1/2 111/1/2
f 110/1/2 107/1/2 111/1/2
f 108/2/2 110/2/2 112/2/2
f 104/1/2 108/1/2 112/1/2
f 110/2/2 111/2/2 112/2/2
f 112/2/2 111/2/2 113/2/2
f 104/1/2 112/1/2 114/1/2
f 112/1/2 113/1/2 114/1/2
f 114/1/2 113/1/2 115/1/2
f 114/3/2 115/3/2 116/3/2
f 115/1/2 113/1/2 117/1/2
f 116/3/2 115/3/2 117/3/2
f 113/2/2 111/2/2 118/2/2
f 117/1/2 113/1/2 118/1/2
f 111/1/2 101/1/2 119/1/2
f 118/2/2 111/2/2 119/2/2
f 117/1/2 118/1/2 120/1/2
f 116/1/2 117/1/2 120/1/2
f 118/1/2 119/1/2 120/1/2
f 120/1/2 119/1/2 121/1/2
f 120/2/2 121/2/2 122/2/2
f 121/1/2 119/1/2 122/1/2
f 119/1/2 101/1/2 123/1/2
f 122/1/2 119/1/2 123/1/2
f 120/2/2 122/2/2 124/2/2
f 122/3/2 123/3/2 124/3/2
f 123/1/2 101/1/2 125/1/2
f 124/3/2 123/3/2 125/3/2
f 124/1/2 125/1/2 126/1/2
f 125/1/2 101/1/2 126/1/2
f 126/1/2 101/1/2 127/1/2
f 116/1/2 120/1/2 128/1/2
f 120/2/2 124/2/2 129/2/2
f 128/1/2 120/1/2 129/1/2
f 128/2/2 129/2/2 130/2/2
f 129/2/2 124/2/2 131/2/2
f 130/2/2 129/2/2 131/2/2
f 124/1/2 126/1/2 132/1/2
f 126/3/2 127/3/2 132/3/2
f 132/3/2 127/3/2 133/3/2
f 130/1/2 131/1/2 134/1/2
f 131/2/2 124/2/2 135/2/2
f 134/1/2 131/1/2 135/1/2
f 134/3/2 135/3/2 136/3/2
f 135/2/2 124/2/2 136/2/2
f 124/1/2 132/1/2 137/1/2
f 136/2/2 124/2/2 137/2/2
f 132/1/2 133/1/2 137/1/2
f 134/3/2 136/3/2 138/3/2
f 136/3/2 137/3/2 138/3/2
f 137/1/2 133/1/2 139/1/2
f 138/3/2 137/3/2 139/3/2
f 138/2/2 139/2/2 140/2/2
f 139/1/2 133/1/2 140/1/2
f 140/1/2 133/1/2 141/1/2
f 138/2/2 140/2/2 142/2/2
f 140/2/2 141/2/2 142/2/2
f 142/2/2 141/2/2 143/2/2
f 141/1/2 133/1/2 144/1/2
f 143/2/2 141/2/2 144/2/2
f 138/2/2 142/2/2 145/2/2
f 142/3/2 143/3/2 146/3/2
f 145/2/2 142/2/2 146/2/2
f 143/1/2 144/1/2 147/1/2
f 146/3/2 143/3/2 147/3/2
f 144/1/2 133/1/2 148/1/2
f 147/1/2 144/1/2 148/1/2
f 146/3/2 147/3/2 149/3/2
f 145/1/2 146/1/2 149/1/2
f 147/2/2 148/2/2 150/2/2
f 149/3/2 147/3/2 150/3/2
f 145/1/2 149/1/2 151/1/2
f 149/1/2 150/1/2 151/1/2
f 150/2/2 148/2/2 152/2/2
f 151/1/2 150/1/2 152/1/2
f 148/1/2 133/1/2 153/1/2
f 152/2/2 148/2/2 153/2/2
f 153/1/2 133/1/2 154/1/2
f 170/1/3 156/1/3 155/1/3
f 170/3/3 157/3/3 156/3/3
f 171/1/3 158/1/3 157/1/3
f 171/3/3 157/3/3 170/3/3
f 172/1/3 158/1/3 171/1/3
f 173/3/3 159/3/3 158/3/3
f 173/1/3 158/1/3 172/1/3
f 174/3/3 159/3/3 173/3/3
f 175/2/3 160/2/3 159/2/3
f 175/3/3 159/3/3 174/3/3
f 176/3/3 161/3/3 160/3/3
f 176/2/3 160/2/3 175/2/3
f 177/3/3 161/3/3 176/3/3
f 178/2/3 162/2/3 161/2/3
f 178/3/3 161/3/3 177/3/3
f 179/1/3 163/1/3 162/1/3
f 179/2/3 162/2/3 178/2/3
f 180/1/3 163/1/3 179/1/3
f 181/2/3 164/2/3 163/2/3
f 181/1/3 163/1/3 180/1/3
f 182/1/3 165/1/3 164/1/3
f 182/2/3 164/2/3 181/2/3
f 183/2/3 166/2/3 165/2/3
f 183/1/3 165/1/3 182/1/3
f 184/1/3 167/1/3 166/1/3
f 184/2/3 166/2/3 183/2/3
f 185/1/3 167/1/3 184/1/3
f 186/1/3 167/1/3 185/1/3
f 187/1/3 169/1/3 168/1/3
f 187/3/3 168/3/3 167/3/3
f 188/1/3 169/1/3 187/1/3
f 189/1/3 170/1/3 155/1/3
f 189/1/3 172/1/3 171/1/3
f 189/1/3 171/1/3 170/1/3
f 190/1/3 172/1/3 189/1/3
f 191/1/3 172/1/3 190/1/3
f 192/2/3 174/2/3 173/2/3
f 192/1/3 172/1/3 191/1/3
f 192/2/3 173/2/3 172/2/3
f 193/3/3 175/3/3 174/3/3
f 193/2/3 174/2/3 192/2/3
f 193/3/3 177/3/3 176/3/3
f 193/3/3 176/3/3 175/3/3
f 194/2/3 178/2/3 177/2/3
f 194/3/3 177/3/3 193/3/3
f 194/2/3 180/2/3 179/2/3
f 194/2/3 179/2/3 178/2/3
f 195/2/3 180/2/3 194/2/3
f 196/2/3 180/2/3 195/2/3
f 197/3/3 181/3/3 180/3/3
f 197/2/3 180/2/3 196/2/3
f 198/3/3 181/3/3 197/3/3
f 199/2/3 182/2/3 181/2/3
f 199/3/3 181/3/3 198/3/3
f 199/2/3 183/2/3 182/2/3
f 200/2/3 183/2/3 199/2/3
f 201/2/3 183/2/3 200/2/3
f 202/3/3 184/3/3 183/3/3
f 202/2/3 183/2/3 201/2/3
f 203/1/3 185/1/3 184/1/3
f 203/3/3 184/3/3 202/3/3
f 204/1/3 185/1/3 203/1/3
f 205/1/3 167/1/3 186/1/3
f 205/2/3 186/2/3 185/2/3
f 206/3/3 188/3/3 187/3/3
f 206/1/3 167/1/3 205/1/3
f 206/3/3 187/3/3 167/3/3
f 207/3/3 188/3/3 206/3/3
f 208/2/3 190/2/3 189/2/3
f 209/1/3 191/1/3 190/1/3
f 209/2/3 190/2/3 208/2/3
f 210/1/3 191/1/3 209/1/3
f 211/2/3 192/2/3 191/2/3
f 211/1/3 191/1/3 210/1/3
f 211/2/3 193/2/3 192/2/3
f 212/1/3 194/1/3 193/1/3
f 212/2/3 193/2/3 211/2/3
f 212/1/3 195/1/3 194/1/3
f 213/1/3 195/1/3 212/1/3
f 214/1/3 195/1/3 213/1/3
f 215/3/3 196/3/3 195/3/3
f 215/1/3 195/1/3 214/1/3
f 216/3/3 196/3/3 215/3/3
f 217/1/3 197/1/3 196/1/3
f 217/3/3 196/3/3 216/3/3
f 218/3/3 198/3/3 197/3/3
f 218/1/3 197/1/3 217/1/3
f 219/1/3 199/1/3 198/1/3
f 219/3/3 198/3/3 218/3/3
f 220/3/3 200/3/3 199/3/3
f 220/1/3 199/1/3 219/1/3
f 221/1/3 201/1/3 200/1/3
f 221/3/3 200/3/3 220/3/3
f 222/2/3 204/2/3 203/2/3
f 222/2/3 203/2/3 202/2/3
f 222/2/3 202/2/3 201/2/3
f 223/2/3 204/2/3 222/2/3
f 224/2/3 204/2/3 223/2/3
f 225/1/3 185/1/3 204/1/3
f 225/2/3 204/2/3 224/2/3
f 226/2/3 205/2/3 185/2/3
f 226/1/3 185/1/3 225/1/3
f 226/2/3 206/2/3 205/2/3
f 227/1/3 207/1/3 206/1/3
f 227/2/3 206/2/3 226/2/3
f 228/3/3 188/3/3 207/3/3
f 228/1/3 207/1/3 227/1/3
f 229/3/3 188/3/3 228/3/3
f 230/1/3 210/1/3 209/1/3
f 230/1/3 209/1/3 208/1/3
f 231/2/3 211/2/3 210/2/3
f 231/1/3 210/1/3 230/1/3
f 232/3/3 212/3/3 211/3/3
f 232/2/3 211/2/3 231/2/3
f 232/3/3 213/3/3 212/3/3
f 233/1/3 214/1/3 213/1/3
f 233/3/3 213/3/3 232/3/3
f 234/3/3 216/3/3 215/3/3
f 234/1/3 214/1/3 233/1/3
f 234/3/3 215/3/3 214/3/3
f 235/1/3 220/1/3 219/1/3
f 235/3/3 216/3/3 234/3/3
f 235/1/3 217/1/3 216/1/3
f 235/1/3 221/1/3 220/1/3
f 235/1/3 218/1/3 217/1/3
f 235/1/3 219/1/3 218/1/3
f 236/1/3 201/1/3 221/1/3
f 236/1/3 221/1/3 235/1/3
f 236/2/3 222/2/3 201/2/3
f 237/1/3 223/1/3 222/1/3
f 237/2/3 222/2/3 236/2/3
f 238/3/3 224/3/3 223/3/3
f 238/1/3 223/1/3 237/1/3
f 239/2/3 225/2/3 224/2/3
f 239/3/3 224/3/3 238/3/3
f 239/2/3 226/2/3 225/2/3
f 240/1/3 229/1/3 228/1/3
f 240/2/3 226/2/3 239/2/3
f 240/1/3 228/1/3 227/1/3
f 240/1/3 227/1/3 226/1/3
f 241/1/3 229/1/3 240/1/3
f 242/2/4 243/2/4 252/2/4
f 243/1/4 244/1/4 253/1/4
f 252/2/4 243/2/4 253/2/4
f 253/1/4 244/1/4 254/1/4
f 244/3/4 245/3/4 255/3/4
f 254/1/4 244/1/4 255/1/4
f 245/2/4 246/2/4 256/2/4
f 255/3/4 245/3/4 256/3/4
f 256/2/4 246/2/4 257/2/4
f 257/2/4 246/2/4 258/2/4
f 258/2/4 246/2/4 259/2/4
f 259/2/4 246/2/4 260/2/4
f 260/2/4 246/2/4 261/2/4
f 261/2/4 246/2/4 262/2/4
f 246/1/4 247/1/4 263/1/4
f 262/2/4 246/2/4 263/2/4
f 247/2/4 248/2/4 264/2/4
f 263/1/4 247/1/4 264/1/4
f 264/2/4 248/2/4 265/2/4
f 248/1/4 249/1/4 266/1/4
f 265/2/4 248/2/4 266/2/4
f 266/1/4 249/1/4 267/1/4
f 267/1/4 249/1/4 268/1/4
f 268/1/4 249/1/4 269/1/4
f 269/1/4 249/1/4 270/1/4
f 270/1/4 249/1/4 271/1/4
f 249/3/4 250/3/4 272/3/4
f 271/1/4 249/1/4 272/1/4
f 272/3/4 250/3/4 273/3/4
f 250/1/4 251/1/4 274/1/4
f 273/3/4 250/3/4 274/3/4
f 253/1/4 254/1/4 275/1/4
f 252/1/4 253/1/4 275/1/4
f 275/1/4 254/1/4 276/1/4
f 254/2/4 255/2/4 277/2/4
f 276/1/4 254/1/4 277/1/4
f 277/2/4 255/2/4 278/2/4
f 255/3/4 256/3/4 279/3/4
f 278/2/4 255/2/4 279/2/4
f 256/3/4 257/3/4 279/3/4
f 279/3/4 257/3/4 280/3/4
f 257/2/4 258/2/4 281/2/4
f 280/3/4 257/3/4 281/3/4
f 258/1/4 259/1/4 282/1/4
f 281/2/4 258/2/4 282/2/4
f 259/2/4 260/2/4 283/2/4
f 260/1/4 261/1/4 283/1/4
f 261/3/4 262/3/4 284/3/4
f 283/1/4 261/1/4 284/1/4
f 262/2/4 263/2/4 285/2/4
f 284/3/4 262/3/4 285/3/4
f 264/2/4 265/2/4 285/2/4
f 263/2/4 264/2/4 285/2/4
f 285/2/4 265/2/4 286/2/4
f 286/2/4 265/2/4 287/2/4
f 265/1/4 266/1/4 288/1/4
f 287/2/4 265/2/4 288/2/4
f 266/1/4 267/1/4 288/1/4
f 267/2/4 268/2/4 289/2/4
f 288/1/4 267/1/4 289/1/4
f 270/1/4 271/1/4 290/1/4
f 269/3/4 270/3/4 290/3/4
f 272/3/4 273/3/4 291/3/4
f 290/1/4 271/1/4 291/1/4
f 271/3/4 272/3/4 291/3/4
f 291/3/4 273/3/4 292/3/4
f 273/1/4 274/1/4 293/1/4
f 292/3/4 273/3/4 293/3/4
f 275/3/4 276/3/4 294/3/4
f 252/1/4 275/1/4 294/1/4
f 277/2/4 278/2/4 295/2/4
f 294/3/4 276/3/4 295/3/4
f 276/2/4 277/2/4 295/2/4
f 278/3/4 279/3/4 296/3/4
f 295/2/4 278/2/4 296/2/4
f 279/3/4 280/3/4 296/3/4
f 296/3/4 280/3/4 297/3/4
f 280/1/4 281/1/4 298/1/4
f 297/3/4 280/3/4 298/3/4
f 281/1/4 282/1/4 298/1/4
f 259/2/4 283/2/4 299/2/4
f 298/1/4 282/1/4 299/1/4
f 283/2/4 284/2/4 299/2/4
f 284/2/4 285/2/4 299/2/4
f 282/1/4 259/1/4 299/1/4
f 285/2/4 286/2/4 299/2/4
f 286/1/4 287/1/4 300/1/4
f 299/2/4 286/2/4 300/2/4
f 300/1/4 287/1/4 301/1/4
f 288/2/4 289/2/4 302/2/4
f 301/1/4 287/1/4 302/1/4
f 287/2/4 288/2/4 302/2/4
f 302/2/4 289/2/4 303/2/4
f 289/2/4 268/2/4 304/2/4
f 303/2/4 289/2/4 304/2/4
f 268/1/4 269/1/4 304/1/4
f 269/3/4 290/3/4 305/3/4
f 304/1/4 269/1/4 305/1/4
f 291/3/4 292/3/4 305/3/4
f 290/3/4 291/3/4 305/3/4
f 292/1/4 293/1/4 306/1/4
f 305/3/4 292/3/4 306/3/4
f 294/1/4 295/1/4 307/1/4
f 252/1/4 294/1/4 307/1/4
f 296/3/4 297/3/4 308/3/4
f 307/1/4 295/1/4 308/1/4
f 295/3/4 296/3/4 308/3/4
f 297/1/4 298/1/4 309/1/4
f 308/3/4 297/3/4 309/3/4
f 300/1/4 301/1/4 309/1/4
f 299/1/4 300/1/4 309/1/4
f 298/1/4 299/1/4 309/1/4
f 302/3/4 303/3/4 310/3/4
f 309/1/4 301/1/4 310/1/4
f 301/3/4 302/3/4 310/3/4
f 303/1/4 304/1/4 311/1/4
f 310/3/4 303/3/4 311/3/4
f 304/1/4 305/1/4 311/1/4
f 305/1/4 306/1/4 311/1/4
f 274/1/4 251/1/4 312/1/4
f 311/1/4 306/1/4 312/1/4
f 293/1/4 274/1/4 312/1/4
f 306/1/4 293/1/4 312/1/4
f 317/1/5 314/1/5 313/1/5
f 317/2/5 315/2/5 314/2/5
f 318/1/5 316/1/5 315/1/5
f 318/2/5 315/2/5 317/2/5
f 319/1/5 317/1/5 313/1/5
f 319/1/5 318/1/5 317/1/5
f 320/1/5 318/1/5 319/1/5
f 321/2/5 320/2/5 319/2/5
f 322/1/5 318/1/5 320/1/5
f 322/2/5 320/2/5 321/2/5
f 323/1/5 316/1/5 318/1/5
f 323/1/5 318/1/5 322/1/5
f 324/1/6 325/1/6 328/1/6
f 325/3/6 326/3/6 328/3/6
f 326/1/6 327/1/6 329/1/6
f 328/3/6 326/3/6 329/3/6
f 328/1/6 329/1/6 330/1/6
f 329/1/6 327/1/6 330/1/6
f 330/1/6 327/1/6 331/1/6
f 328/1/6 330/1/6 332/1/6
f 330/2/6 331/2/6 332/2/6
f 332/2/6 331/2/6 333/2/6
f 324/1/6 328/1/6 334/1/6
f 328/1/6 332/1/6 334/1/6
f 332/1/6 333/1/6 334/1/6
f 334/1/6 333/1/6 335/1/6
