# MagicaVoxel @ Ephtracy

# group
o 

# material
mtllib shkaf-0.mtl
usemtl palette

# normals
vn -1 0 0
vn 1 0 0
vn 0 0 1
vn 0 0 -1
vn 0 -1 0
vn 0 1 0

# texcoords
vt 0.943359 0.5
vt 0.994141 0.5

# verts
v -1.7 -1.7 0.1
v -1.7 -1.7 -0.1
v -1.7 1.2 0.3
v -1.7 1.2 0.1
v -1.7 1.3 0.2
v -1.7 1.3 0.1
v -1.7 1.5 0.2
v -1.7 1.5 0.1
v -1.7 1.6 0.3
v -1.7 1.6 0.1
v -1.7 1.7 0.1
v -1.7 1.7 -0.1
v -1.3 -1.3 0.1
v -1.3 -1.3 -2.98023e-08
v -1.3 1.4 0.1
v -1.3 1.4 -2.98023e-08
v -0.9 -0.9 0.1
v -0.9 -0.9 -2.98023e-08
v -0.9 1 0.1
v -0.9 1 -2.98023e-08
v -0.5 -0.5 0.1
v -0.5 -0.5 -2.98023e-08
v -0.5 0.6 0.1
v -0.5 0.6 -2.98023e-08
v 0.7 -0.7 0.1
v 0.7 -0.7 -2.98023e-08
v 0.7 0.8 0.1
v 0.7 0.8 -2.98023e-08
v 1.1 -1.1 0.1
v 1.1 -1.1 -2.98023e-08
v 1.1 1.2 0.1
v 1.1 1.2 -2.98023e-08
v 1.5 -1.5 0.1
v 1.5 -1.5 -2.98023e-08
v 1.5 1.6 0.1
v 1.5 1.6 -2.98023e-08
v -1.5 -1.5 0.1
v -1.5 -1.5 -2.98023e-08
v -1.5 1.2 0.3
v -1.5 1.2 0.1
v -1.5 1.3 0.2
v -1.5 1.3 0.1
v -1.5 1.5 0.2
v -1.5 1.5 0.1
v -1.5 1.6 0.3
v -1.5 1.6 0.1
v -1.5 1.6 -2.98023e-08
v -1.1 -1.1 0.1
v -1.1 -1.1 -2.98023e-08
v -1.1 1.2 0.1
v -1.1 1.2 -2.98023e-08
v -0.7 -0.7 0.1
v -0.7 -0.7 -2.98023e-08
v -0.7 0.8 0.1
v -0.7 0.8 -2.98023e-08
v 0.5 -0.5 0.1
v 0.5 -0.5 -2.98023e-08
v 0.5 0.6 0.1
v 0.5 0.6 -2.98023e-08
v 0.9 -0.9 0.1
v 0.9 -0.9 -2.98023e-08
v 0.9 1 0.1
v 0.9 1 -2.98023e-08
v 1.3 -1.3 0.1
v 1.3 -1.3 -2.98023e-08
v 1.3 1.4 0.1
v 1.3 1.4 -2.98023e-08
v 1.7 -1.7 0.1
v 1.7 -1.7 -0.1
v 1.7 1.7 0.1
v 1.7 1.7 -0.1
v -1.7 1.2 0.3
v -1.7 1.6 0.3
v -1.5 1.2 0.3
v -1.5 1.6 0.3
v -1.7 -1.7 0.1
v -1.7 1.2 0.1
v -1.7 1.3 0.1
v -1.7 1.5 0.1
v -1.7 1.6 0.1
v -1.7 1.7 0.1
v -1.5 -1.5 0.1
v -1.5 1.2 0.1
v -1.5 1.3 0.1
v -1.5 1.5 0.1
v -1.5 1.6 0.1
v -1.3 -1.3 0.1
v -1.3 1.4 0.1
v -1.1 -1.1 0.1
v -1.1 1.2 0.1
v -0.9 -0.9 0.1
v -0.9 1 0.1
v -0.7 -0.7 0.1
v -0.7 0.8 0.1
v -0.5 -0.5 0.1
v -0.5 0.6 0.1
v 0.5 -0.5 0.1
v 0.5 0.6 0.1
v 0.7 -0.7 0.1
v 0.7 0.8 0.1
v 0.9 -0.9 0.1
v 0.9 1 0.1
v 1.1 -1.1 0.1
v 1.1 1.2 0.1
v 1.3 -1.3 0.1
v 1.3 1.4 0.1
v 1.5 -1.5 0.1
v 1.5 1.6 0.1
v 1.7 -1.7 0.1
v 1.7 1.7 0.1
v -1.5 -1.5 -2.98023e-08
v -1.5 1.6 -2.98023e-08
v -1.3 -1.3 -2.98023e-08
v -1.3 1.4 -2.98023e-08
v -1.1 -1.1 -2.98023e-08
v -1.1 1.2 -2.98023e-08
v -0.9 -0.9 -2.98023e-08
v -0.9 1 -2.98023e-08
v -0.7 -0.7 -2.98023e-08
v -0.7 0.8 -2.98023e-08
v -0.5 -0.5 -2.98023e-08
v -0.5 0.6 -2.98023e-08
v 0.5 -0.5 -2.98023e-08
v 0.5 0.6 -2.98023e-08
v 0.7 -0.7 -2.98023e-08
v 0.7 0.8 -2.98023e-08
v 0.9 -0.9 -2.98023e-08
v 0.9 1 -2.98023e-08
v 1.1 -1.1 -2.98023e-08
v 1.1 1.2 -2.98023e-08
v 1.3 -1.3 -2.98023e-08
v 1.3 1.4 -2.98023e-08
v 1.5 -1.5 -2.98023e-08
v 1.5 1.6 -2.98023e-08
v -1.7 1.3 0.2
v -1.7 1.5 0.2
v -1.5 1.3 0.2
v -1.5 1.5 0.2
v -1.7 -1.7 -0.1
v -1.7 1.7 -0.1
v 1.7 -1.7 -0.1
v 1.7 1.7 -0.1
v -1.7 -1.7 0.1
v 1.7 -1.7 0.1
v -1.7 -1.7 -0.1
v 1.7 -1.7 -0.1
v -1.3 -1.3 0.1
v 1.3 -1.3 0.1
v -1.3 -1.3 -2.98023e-08
v 1.3 -1.3 -2.98023e-08
v -0.9 -0.9 0.1
v 0.9 -0.9 0.1
v -0.9 -0.9 -2.98023e-08
v 0.9 -0.9 -2.98023e-08
v -0.5 -0.5 0.1
v 0.5 -0.5 0.1
v -0.5 -0.5 -2.98023e-08
v 0.5 -0.5 -2.98023e-08
v -0.7 0.8 0.1
v 0.7 0.8 0.1
v -0.7 0.8 -2.98023e-08
v 0.7 0.8 -2.98023e-08
v -1.7 1.2 0.3
v -1.5 1.2 0.3
v -1.7 1.2 0.1
v -1.5 1.2 0.1
v -1.1 1.2 0.1
v 1.1 1.2 0.1
v -1.1 1.2 -2.98023e-08
v 1.1 1.2 -2.98023e-08
v -1.7 1.5 0.2
v -1.5 1.5 0.2
v -1.7 1.5 0.1
v -1.5 1.5 0.1
v -1.5 1.6 0.1
v 1.5 1.6 0.1
v -1.5 1.6 -2.98023e-08
v 1.5 1.6 -2.98023e-08
v -1.5 -1.5 0.1
v 1.5 -1.5 0.1
v -1.5 -1.5 -2.98023e-08
v 1.5 -1.5 -2.98023e-08
v -1.1 -1.1 0.1
v 1.1 -1.1 0.1
v -1.1 -1.1 -2.98023e-08
v 1.1 -1.1 -2.98023e-08
v -0.7 -0.7 0.1
v 0.7 -0.7 0.1
v -0.7 -0.7 -2.98023e-08
v 0.7 -0.7 -2.98023e-08
v -0.5 0.6 0.1
v 0.5 0.6 0.1
v -0.5 0.6 -2.98023e-08
v 0.5 0.6 -2.98023e-08
v -0.9 1 0.1
v 0.9 1 0.1
v -0.9 1 -2.98023e-08
v 0.9 1 -2.98023e-08
v -1.7 1.3 0.2
v -1.5 1.3 0.2
v -1.7 1.3 0.1
v -1.5 1.3 0.1
v -1.3 1.4 0.1
v 1.3 1.4 0.1
v -1.3 1.4 -2.98023e-08
v 1.3 1.4 -2.98023e-08
v -1.7 1.6 0.3
v -1.5 1.6 0.3
v -1.7 1.6 0.1
v -1.5 1.6 0.1
v -1.7 1.7 0.1
v 1.7 1.7 0.1
v -1.7 1.7 -0.1
v 1.7 1.7 -0.1

# faces
f 4/1/1 2/1/1 1/1/1
f 5/2/1 4/2/1 3/2/1
f 6/1/1 2/1/1 4/1/1
f 6/2/1 4/2/1 5/2/1
f 7/2/1 5/2/1 3/2/1
f 8/1/1 2/1/1 6/1/1
f 9/2/1 7/2/1 3/2/1
f 9/2/1 8/2/1 7/2/1
f 10/1/1 2/1/1 8/1/1
f 10/2/1 8/2/1 9/2/1
f 11/1/1 2/1/1 10/1/1
f 12/1/1 2/1/1 11/1/1
f 15/1/1 14/1/1 13/1/1
f 16/1/1 14/1/1 15/1/1
f 19/1/1 18/1/1 17/1/1
f 20/1/1 18/1/1 19/1/1
f 23/1/1 22/1/1 21/1/1
f 24/1/1 22/1/1 23/1/1
f 27/1/1 26/1/1 25/1/1
f 28/1/1 26/1/1 27/1/1
f 31/1/1 30/1/1 29/1/1
f 32/1/1 30/1/1 31/1/1
f 35/1/1 34/1/1 33/1/1
f 36/1/1 34/1/1 35/1/1
f 37/1/2 38/1/2 40/1/2
f 39/2/2 40/2/2 41/2/2
f 40/1/2 38/1/2 42/1/2
f 41/2/2 40/2/2 42/2/2
f 39/2/2 41/2/2 43/2/2
f 42/1/2 38/1/2 44/1/2
f 39/2/2 43/2/2 45/2/2
f 43/2/2 44/2/2 45/2/2
f 44/1/2 38/1/2 46/1/2
f 45/2/2 44/2/2 46/2/2
f 46/1/2 38/1/2 47/1/2
f 48/1/2 49/1/2 50/1/2
f 50/1/2 49/1/2 51/1/2
f 52/1/2 53/1/2 54/1/2
f 54/1/2 53/1/2 55/1/2
f 56/1/2 57/1/2 58/1/2
f 58/1/2 57/1/2 59/1/2
f 60/1/2 61/1/2 62/1/2
f 62/1/2 61/1/2 63/1/2
f 64/1/2 65/1/2 66/1/2
f 66/1/2 65/1/2 67/1/2
f 68/1/2 69/1/2 70/1/2
f 70/1/2 69/1/2 71/1/2
f 74/2/3 73/2/3 72/2/3
f 75/2/3 73/2/3 74/2/3
f 82/1/3 77/1/3 76/1/3
f 83/1/3 77/1/3 82/1/3
f 84/1/3 79/1/3 78/1/3
f 85/1/3 79/1/3 84/1/3
f 86/1/3 81/1/3 80/1/3
f 89/1/3 88/1/3 87/1/3
f 90/1/3 88/1/3 89/1/3
f 93/1/3 92/1/3 91/1/3
f 94/1/3 92/1/3 93/1/3
f 97/1/3 96/1/3 95/1/3
f 98/1/3 96/1/3 97/1/3
f 99/1/3 93/1/3 91/1/3
f 100/1/3 92/1/3 94/1/3
f 101/1/3 99/1/3 91/1/3
f 101/1/3 100/1/3 99/1/3
f 102/1/3 92/1/3 100/1/3
f 102/1/3 100/1/3 101/1/3
f 103/1/3 89/1/3 87/1/3
f 104/1/3 88/1/3 90/1/3
f 105/1/3 103/1/3 87/1/3
f 105/1/3 104/1/3 103/1/3
f 106/1/3 88/1/3 104/1/3
f 106/1/3 104/1/3 105/1/3
f 107/1/3 82/1/3 76/1/3
f 108/1/3 81/1/3 86/1/3
f 109/1/3 107/1/3 76/1/3
f 109/1/3 108/1/3 107/1/3
f 110/1/3 81/1/3 108/1/3
f 110/1/3 108/1/3 109/1/3
f 113/1/3 112/1/3 111/1/3
f 114/1/3 112/1/3 113/1/3
f 117/1/3 116/1/3 115/1/3
f 118/1/3 116/1/3 117/1/3
f 121/1/3 120/1/3 119/1/3
f 122/1/3 120/1/3 121/1/3
f 123/1/3 121/1/3 119/1/3
f 124/1/3 120/1/3 122/1/3
f 125/1/3 123/1/3 119/1/3
f 125/1/3 124/1/3 123/1/3
f 126/1/3 120/1/3 124/1/3
f 126/1/3 124/1/3 125/1/3
f 127/1/3 117/1/3 115/1/3
f 128/1/3 116/1/3 118/1/3
f 129/1/3 127/1/3 115/1/3
f 129/1/3 128/1/3 127/1/3
f 130/1/3 116/1/3 128/1/3
f 130/1/3 128/1/3 129/1/3
f 131/1/3 113/1/3 111/1/3
f 132/1/3 112/1/3 114/1/3
f 133/1/3 131/1/3 111/1/3
f 133/1/3 132/1/3 131/1/3
f 134/1/3 112/1/3 132/1/3
f 134/1/3 132/1/3 133/1/3
f 135/2/4 136/2/4 137/2/4
f 137/2/4 136/2/4 138/2/4
f 139/1/4 140/1/4 141/1/4
f 141/1/4 140/1/4 142/1/4
f 145/1/5 144/1/5 143/1/5
f 146/1/5 144/1/5 145/1/5
f 149/1/5 148/1/5 147/1/5
f 150/1/5 148/1/5 149/1/5
f 153/1/5 152/1/5 151/1/5
f 154/1/5 152/1/5 153/1/5
f 157/1/5 156/1/5 155/1/5
f 158/1/5 156/1/5 157/1/5
f 161/1/5 160/1/5 159/1/5
f 162/1/5 160/1/5 161/1/5
f 165/2/5 164/2/5 163/2/5
f 166/2/5 164/2/5 165/2/5
f 169/1/5 168/1/5 167/1/5
f 170/1/5 168/1/5 169/1/5
f 173/2/5 172/2/5 171/2/5
f 174/2/5 172/2/5 173/2/5
f 177/1/5 176/1/5 175/1/5
f 178/1/5 176/1/5 177/1/5
f 179/1/6 180/1/6 181/1/6
f 181/1/6 180/1/6 182/1/6
f 183/1/6 184/1/6 185/1/6
f 185/1/6 184/1/6 186/1/6
f 187/1/6 188/1/6 189/1/6
f 189/1/6 188/1/6 190/1/6
f 191/1/6 192/1/6 193/1/6
f 193/1/6 192/1/6 194/1/6
f 195/1/6 196/1/6 197/1/6
f 197/1/6 196/1/6 198/1/6
f 199/2/6 200/2/6 201/2/6
f 201/2/6 200/2/6 202/2/6
f 203/1/6 204/1/6 205/1/6
f 205/1/6 204/1/6 206/1/6
f 207/2/6 208/2/6 209/2/6
f 209/2/6 208/2/6 210/2/6
f 211/1/6 212/1/6 213/1/6
f 213/1/6 212/1/6 214/1/6
