# MagicaVoxel @ Ephtracy

# group
o 

# material
mtllib CorridorWall-1.mtl
usemtl palette

# normals
vn -1 0 0
vn 1 0 0
vn 0 0 1
vn 0 0 -1
vn 0 -1 0
vn 0 1 0

# texcoords
vt 0.845703 0.5
vt 0.876953 0.5
vt 0.939453 0.5

# verts
v -0.1 -2.2 -3.3
v -0.1 -2.2 -4.8
v -0.1 -2.2 -6.8
v -0.1 -2.2 -8.3
v -0.1 -2.1 -3.3
v -0.1 -2.1 -4.8
v -0.1 -2.1 -6.8
v -0.1 -2.1 -8.3
v -0.1 -0.6 -3.3
v -0.1 -0.6 -4.8
v -0.1 -0.6 -6.8
v -0.1 -0.6 -8.3
v -0.1 1.2 -4.8
v -0.1 1.2 -6.8
v -0.1 2.3 -3.3
v -0.1 2.3 -8.3
v 0.2 -2.2 -3.3
v 0.2 -2.2 -4.8
v 0.2 -2.2 -6.8
v 0.2 -2.2 -8.3
v 0.2 -2.1 -3.3
v 0.2 -2.1 -4.8
v 0.2 -2.1 -6.8
v 0.2 -2.1 -8.3
v 0.2 -0.6 -3.3
v 0.2 -0.6 -4.8
v 0.2 -0.6 -6.8
v 0.2 -0.6 -8.3
v 0.2 1.2 -4.8
v 0.2 1.2 -6.8
v 0.2 2.3 -3.3
v 0.2 2.3 -8.3
v -0.1 -2.2 -3.3
v -0.1 -2.1 -3.3
v -0.1 -0.6 -3.3
v -0.1 2.3 -3.3
v 0.2 -2.2 -3.3
v 0.2 -2.1 -3.3
v 0.2 -0.6 -3.3
v 0.2 2.3 -3.3
v -0.1 -2.2 -6.8
v -0.1 -2.1 -6.8
v -0.1 -0.6 -6.8
v -0.1 1.2 -6.8
v 0.2 -2.2 -6.8
v 0.2 -2.1 -6.8
v 0.2 -0.6 -6.8
v 0.2 1.2 -6.8
v -0.1 -2.2 -4.8
v -0.1 -2.1 -4.8
v -0.1 -0.6 -4.8
v -0.1 1.2 -4.8
v 0.2 -2.2 -4.8
v 0.2 -2.1 -4.8
v 0.2 -0.6 -4.8
v 0.2 1.2 -4.8
v -0.1 -2.2 -8.3
v -0.1 -2.1 -8.3
v -0.1 -0.6 -8.3
v -0.1 2.3 -8.3
v 0.2 -2.2 -8.3
v 0.2 -2.1 -8.3
v 0.2 -0.6 -8.3
v 0.2 2.3 -8.3
v -0.1 -2.2 -3.3
v 0.2 -2.2 -3.3
v -0.1 -2.2 -4.8
v 0.2 -2.2 -4.8
v -0.1 -2.2 -6.8
v 0.2 -2.2 -6.8
v -0.1 -2.2 -8.3
v 0.2 -2.2 -8.3
v -0.1 1.2 -4.8
v 0.2 1.2 -4.8
v -0.1 1.2 -6.8
v 0.2 1.2 -6.8
v -0.1 2.3 -3.3
v 0.2 2.3 -3.3
v -0.1 2.3 -8.3
v 0.2 2.3 -8.3

# faces
f 5/1/1 2/1/1 1/1/1
f 6/1/1 2/1/1 5/1/1
f 7/1/1 4/1/1 3/1/1
f 8/1/1 4/1/1 7/1/1
f 9/2/1 6/2/1 5/2/1
f 10/2/1 6/2/1 9/2/1
f 11/2/1 8/2/1 7/2/1
f 12/2/1 8/2/1 11/2/1
f 13/3/1 10/3/1 9/3/1
f 14/3/1 12/3/1 11/3/1
f 15/3/1 13/3/1 9/3/1
f 15/3/1 14/3/1 13/3/1
f 16/3/1 12/3/1 14/3/1
f 16/3/1 14/3/1 15/3/1
f 17/1/2 18/1/2 21/1/2
f 21/1/2 18/1/2 22/1/2
f 19/1/2 20/1/2 23/1/2
f 23/1/2 20/1/2 24/1/2
f 21/2/2 22/2/2 25/2/2
f 25/2/2 22/2/2 26/2/2
f 23/2/2 24/2/2 27/2/2
f 27/2/2 24/2/2 28/2/2
f 25/3/2 26/3/2 29/3/2
f 27/3/2 28/3/2 30/3/2
f 25/3/2 29/3/2 31/3/2
f 29/3/2 30/3/2 31/3/2
f 30/3/2 28/3/2 32/3/2
f 31/3/2 30/3/2 32/3/2
f 37/1/3 34/1/3 33/1/3
f 38/2/3 35/2/3 34/2/3
f 38/1/3 34/1/3 37/1/3
f 39/3/3 36/3/3 35/3/3
f 39/2/3 35/2/3 38/2/3
f 40/3/3 36/3/3 39/3/3
f 45/1/3 42/1/3 41/1/3
f 46/2/3 43/2/3 42/2/3
f 46/1/3 42/1/3 45/1/3
f 47/3/3 44/3/3 43/3/3
f 47/2/3 43/2/3 46/2/3
f 48/3/3 44/3/3 47/3/3
f 49/1/4 50/1/4 53/1/4
f 50/2/4 51/2/4 54/2/4
f 53/1/4 50/1/4 54/1/4
f 51/3/4 52/3/4 55/3/4
f 54/2/4 51/2/4 55/2/4
f 55/3/4 52/3/4 56/3/4
f 57/1/4 58/1/4 61/1/4
f 58/2/4 59/2/4 62/2/4
f 61/1/4 58/1/4 62/1/4
f 59/3/4 60/3/4 63/3/4
f 62/2/4 59/2/4 63/2/4
f 63/3/4 60/3/4 64/3/4
f 67/1/5 66/1/5 65/1/5
f 68/1/5 66/1/5 67/1/5
f 71/1/5 70/1/5 69/1/5
f 72/1/5 70/1/5 71/1/5
f 75/3/5 74/3/5 73/3/5
f 76/3/5 74/3/5 75/3/5
f 77/3/6 78/3/6 79/3/6
f 79/3/6 78/3/6 80/3/6
