# MagicaVoxel @ Ephtracy

# group
o 

# material
mtllib book.mtl
usemtl palette

# normals
vn -1 0 0
vn 1 0 0
vn 0 0 1
vn 0 0 -1
vn 0 -1 0
vn 0 1 0

# texcoords
vt 0.00195312 0.5
vt 0.00585938 0.5
vt 0.0683594 0.5
vt 0.306641 0.5
vt 0.962891 0.5

# verts
v -0.2 -0.8 0.6
v -0.2 -0.8 -0.4
v -0.2 -0.8 -0.5
v -0.2 -0.8 -0.6
v -0.2 -0.6 0.3
v -0.2 -0.6 0.1
v -0.2 -0.6 5.96046e-08
v -0.2 -0.6 -0.2
v -0.2 -0.5 0.3
v -0.2 -0.5 0.1
v -0.2 -0.5 5.96046e-08
v -0.2 -0.5 -0.2
v -0.2 -0.5 -0.3
v -0.2 -0.5 -0.4
v -0.2 -0.5 -0.5
v -0.2 -0.5 -0.6
v -0.2 -0.4 0.4
v -0.2 -0.4 0.2
v -0.2 -0.4 0.1
v -0.2 -0.4 -0.1
v -0.2 -0.4 -0.3
v -0.2 -0.4 -0.4
v -0.2 -0.3 0.1
v -0.2 -0.3 -0.1
v -0.2 -0.3 -0.3
v -0.2 -0.3 -0.4
v -0.2 -0.2 0.4
v -0.2 -0.2 0.2
v -0.2 -0.2 0.1
v -0.2 -0.2 -0.1
v -0.2 -0.2 -0.3
v -0.2 -0.2 -0.4
v -0.2 -0.1 0.4
v -0.2 -0.1 0.2
v -0.2 -0.1 0.1
v -0.2 -0.1 5.96046e-08
v -0.2 -0.1 -0.1
v -0.2 -0.1 -0.2
v -0.2 -0.1 -0.3
v -0.2 -0.1 -0.4
v -0.2 0 5.96046e-08
v -0.2 0 -0.2
v -0.2 0 -0.3
v -0.2 0 -0.4
v -0.2 0.1 0.4
v -0.2 0.1 0.2
v -0.2 0.1 5.96046e-08
v -0.2 0.1 -0.2
v -0.2 0.1 -0.3
v -0.2 0.1 -0.4
v -0.2 0.2 0.4
v -0.2 0.2 0.2
v -0.2 0.2 5.96046e-08
v -0.2 0.2 -0.2
v -0.2 0.2 -0.3
v -0.2 0.2 -0.4
v -0.2 0.3 5.96046e-08
v -0.2 0.3 -0.2
v -0.2 0.3 -0.3
v -0.2 0.3 -0.4
v -0.2 0.4 0.4
v -0.2 0.4 0.2
v -0.2 0.4 0.1
v -0.2 0.4 5.96046e-08
v -0.2 0.4 -0.1
v -0.2 0.4 -0.2
v -0.2 0.4 -0.3
v -0.2 0.4 -0.4
v -0.2 0.5 0.4
v -0.2 0.5 0.2
v -0.2 0.5 0.1
v -0.2 0.5 -0.1
v -0.2 0.5 -0.3
v -0.2 0.5 -0.4
v -0.2 0.6 0.1
v -0.2 0.6 -0.1
v -0.2 0.6 -0.3
v -0.2 0.6 -0.4
v -0.2 0.7 0.4
v -0.2 0.7 0.2
v -0.2 0.7 0.1
v -0.2 0.7 -0.1
v -0.2 0.7 -0.4
v -0.2 0.7 -0.5
v -0.2 0.7 -0.6
v -0.2 0.8 -0.5
v -0.2 0.8 -0.6
v -0.2 0.9 0.6
v -0.2 0.9 -0.4
v -0.1 0.8 -0.5
v -0.1 0.8 -0.6
v -0.1 0.9 -0.5
v -0.1 0.9 -0.6
v 0.1 -0.8 -0.5
v 0.1 -0.8 -0.6
v 0.1 -0.7 -0.5
v 0.1 -0.7 -0.6
v 0.2 -0.8 0.6
v 0.2 -0.8 -0.4
v 0.2 -0.7 0.5
v 0.2 -0.7 -0.4
v 0.2 0.8 0.5
v 0.2 0.8 -0.4
v 0.2 0.8 -0.5
v 0.2 0.8 -0.6
v 0.2 0.9 0.6
v 0.2 0.9 -0.4
v 0.2 0.9 -0.5
v 0.2 0.9 -0.6
v -0.1 -0.8 0.6
v -0.1 -0.8 -0.4
v -0.1 -0.8 -0.5
v -0.1 -0.8 -0.6
v -0.1 -0.7 0.5
v -0.1 -0.7 -0.4
v -0.1 -0.7 -0.5
v -0.1 -0.7 -0.6
v -0.1 0.8 0.5
v -0.1 0.8 -0.4
v -0.1 0.9 0.6
v -0.1 0.9 -0.4
v 0.1 0.8 -0.5
v 0.1 0.8 -0.6
v 0.1 0.9 -0.5
v 0.1 0.9 -0.6
v 0.3 -0.8 0.6
v 0.3 -0.8 -0.4
v 0.3 -0.8 -0.5
v 0.3 -0.8 -0.6
v 0.3 -0.6 0.3
v 0.3 -0.6 0.1
v 0.3 -0.6 5.96046e-08
v 0.3 -0.6 -0.2
v 0.3 -0.5 0.3
v 0.3 -0.5 0.1
v 0.3 -0.5 5.96046e-08
v 0.3 -0.5 -0.2
v 0.3 -0.5 -0.3
v 0.3 -0.5 -0.4
v 0.3 -0.5 -0.5
v 0.3 -0.5 -0.6
v 0.3 -0.4 0.4
v 0.3 -0.4 0.2
v 0.3 -0.4 0.1
v 0.3 -0.4 -0.1
v 0.3 -0.4 -0.3
v 0.3 -0.4 -0.4
v 0.3 -0.3 0.1
v 0.3 -0.3 -0.1
v 0.3 -0.3 -0.3
v 0.3 -0.3 -0.4
v 0.3 -0.2 0.4
v 0.3 -0.2 0.2
v 0.3 -0.2 0.1
v 0.3 -0.2 -0.1
v 0.3 -0.2 -0.3
v 0.3 -0.2 -0.4
v 0.3 -0.1 0.4
v 0.3 -0.1 0.2
v 0.3 -0.1 0.1
v 0.3 -0.1 5.96046e-08
v 0.3 -0.1 -0.1
v 0.3 -0.1 -0.2
v 0.3 -0.1 -0.3
v 0.3 -0.1 -0.4
v 0.3 0 5.96046e-08
v 0.3 0 -0.2
v 0.3 0 -0.3
v 0.3 0 -0.4
v 0.3 0.1 0.4
v 0.3 0.1 0.2
v 0.3 0.1 5.96046e-08
v 0.3 0.1 -0.2
v 0.3 0.1 -0.3
v 0.3 0.1 -0.4
v 0.3 0.2 0.4
v 0.3 0.2 0.2
v 0.3 0.2 5.96046e-08
v 0.3 0.2 -0.2
v 0.3 0.2 -0.3
v 0.3 0.2 -0.4
v 0.3 0.3 5.96046e-08
v 0.3 0.3 -0.2
v 0.3 0.3 -0.3
v 0.3 0.3 -0.4
v 0.3 0.4 0.4
v 0.3 0.4 0.2
v 0.3 0.4 0.1
v 0.3 0.4 5.96046e-08
v 0.3 0.4 -0.1
v 0.3 0.4 -0.2
v 0.3 0.4 -0.3
v 0.3 0.4 -0.4
v 0.3 0.5 0.4
v 0.3 0.5 0.2
v 0.3 0.5 0.1
v 0.3 0.5 -0.1
v 0.3 0.5 -0.3
v 0.3 0.5 -0.4
v 0.3 0.6 0.1
v 0.3 0.6 -0.1
v 0.3 0.6 -0.3
v 0.3 0.6 -0.4
v 0.3 0.7 0.4
v 0.3 0.7 0.2
v 0.3 0.7 0.1
v 0.3 0.7 -0.1
v 0.3 0.7 -0.4
v 0.3 0.7 -0.5
v 0.3 0.7 -0.6
v 0.3 0.9 0.6
v 0.3 0.9 -0.4
v 0.3 0.9 -0.5
v 0.3 0.9 -0.6
v -0.2 -0.8 0.6
v -0.2 0.9 0.6
v -0.1 -0.8 0.6
v -0.1 0.9 0.6
v 0.2 -0.8 0.6
v 0.2 0.9 0.6
v 0.3 -0.8 0.6
v 0.3 0.9 0.6
v -0.1 -0.7 0.5
v -0.1 0.8 0.5
v 0.2 -0.7 0.5
v 0.2 0.8 0.5
v -0.2 -0.8 -0.5
v -0.2 -0.5 -0.5
v -0.2 0.7 -0.5
v -0.2 0.8 -0.5
v -0.1 -0.8 -0.5
v -0.1 -0.7 -0.5
v -0.1 0.8 -0.5
v -0.1 0.9 -0.5
v 0.1 -0.8 -0.5
v 0.1 -0.7 -0.5
v 0.1 0.8 -0.5
v 0.1 0.9 -0.5
v 0.2 0.8 -0.5
v 0.2 0.9 -0.5
v 0.3 -0.8 -0.5
v 0.3 -0.5 -0.5
v 0.3 0.7 -0.5
v 0.3 0.9 -0.5
v -0.2 -0.8 -0.4
v -0.2 -0.5 -0.4
v -0.2 0.7 -0.4
v -0.2 0.9 -0.4
v -0.1 -0.8 -0.4
v -0.1 -0.7 -0.4
v -0.1 -0.5 -0.4
v -0.1 0.7 -0.4
v -0.1 0.8 -0.4
v -0.1 0.9 -0.4
v 0.2 -0.8 -0.4
v 0.2 -0.7 -0.4
v 0.2 -0.5 -0.4
v 0.2 0.7 -0.4
v 0.2 0.8 -0.4
v 0.2 0.9 -0.4
v 0.3 -0.8 -0.4
v 0.3 -0.5 -0.4
v 0.3 0.7 -0.4
v 0.3 0.9 -0.4
v -0.2 -0.5 -0.5
v -0.2 0.7 -0.5
v 0.3 -0.5 -0.5
v 0.3 0.7 -0.5
v -0.2 -0.8 -0.6
v -0.2 -0.5 -0.6
v -0.2 0.7 -0.6
v -0.2 0.8 -0.6
v -0.1 -0.8 -0.6
v -0.1 -0.7 -0.6
v -0.1 0.8 -0.6
v -0.1 0.9 -0.6
v 0.1 -0.8 -0.6
v 0.1 -0.7 -0.6
v 0.1 0.8 -0.6
v 0.1 0.9 -0.6
v 0.2 0.8 -0.6
v 0.2 0.9 -0.6
v 0.3 -0.8 -0.6
v 0.3 -0.5 -0.6
v 0.3 0.7 -0.6
v 0.3 0.9 -0.6
v -0.2 -0.8 0.6
v -0.1 -0.8 0.6
v 0.2 -0.8 0.6
v 0.3 -0.8 0.6
v -0.2 -0.8 -0.4
v -0.1 -0.8 -0.4
v 0.2 -0.8 -0.4
v 0.3 -0.8 -0.4
v -0.2 -0.8 -0.5
v -0.1 -0.8 -0.5
v 0.1 -0.8 -0.5
v 0.3 -0.8 -0.5
v -0.2 -0.8 -0.6
v -0.1 -0.8 -0.6
v 0.1 -0.8 -0.6
v 0.3 -0.8 -0.6
v -0.1 -0.7 0.5
v 0.2 -0.7 0.5
v -0.1 -0.7 -0.4
v 0.2 -0.7 -0.4
v -0.1 -0.7 -0.5
v 0.1 -0.7 -0.5
v -0.1 -0.7 -0.6
v 0.1 -0.7 -0.6
v -0.2 -0.5 -0.4
v -0.1 -0.5 -0.4
v 0.2 -0.5 -0.4
v 0.3 -0.5 -0.4
v -0.2 -0.5 -0.5
v 0.3 -0.5 -0.5
v -0.2 0.7 -0.5
v 0.3 0.7 -0.5
v -0.2 0.7 -0.6
v 0.3 0.7 -0.6
v -0.2 -0.5 -0.5
v 0.3 -0.5 -0.5
v -0.2 -0.5 -0.6
v 0.3 -0.5 -0.6
v -0.2 0.7 -0.4
v -0.1 0.7 -0.4
v 0.2 0.7 -0.4
v 0.3 0.7 -0.4
v -0.2 0.7 -0.5
v 0.3 0.7 -0.5
v -0.1 0.8 0.5
v 0.2 0.8 0.5
v -0.1 0.8 -0.4
v 0.2 0.8 -0.4
v -0.2 0.8 -0.5
v -0.1 0.8 -0.5
v 0.1 0.8 -0.5
v 0.2 0.8 -0.5
v -0.2 0.8 -0.6
v -0.1 0.8 -0.6
v 0.1 0.8 -0.6
v 0.2 0.8 -0.6
v -0.2 0.9 0.6
v -0.1 0.9 0.6
v 0.2 0.9 0.6
v 0.3 0.9 0.6
v -0.2 0.9 -0.4
v -0.1 0.9 -0.4
v 0.2 0.9 -0.4
v 0.3 0.9 -0.4
v -0.1 0.9 -0.5
v 0.1 0.9 -0.5
v 0.2 0.9 -0.5
v 0.3 0.9 -0.5
v -0.1 0.9 -0.6
v 0.1 0.9 -0.6
v 0.2 0.9 -0.6
v 0.3 0.9 -0.6

# faces
f 5/4/1 2/4/1 1/4/1
f 6/4/1 2/4/1 5/4/1
f 7/4/1 2/4/1 6/4/1
f 8/4/1 2/4/1 7/4/1
f 9/4/1 5/4/1 1/4/1
f 9/2/1 6/2/1 5/2/1
f 10/4/1 7/4/1 6/4/1
f 10/2/1 6/2/1 9/2/1
f 11/5/1 8/5/1 7/5/1
f 11/4/1 7/4/1 10/4/1
f 12/4/1 2/4/1 8/4/1
f 12/5/1 8/5/1 11/5/1
f 13/4/1 2/4/1 12/4/1
f 14/4/1 2/4/1 13/4/1
f 15/1/1 4/1/1 3/1/1
f 16/1/1 4/1/1 15/1/1
f 17/4/1 11/4/1 10/4/1
f 17/4/1 10/4/1 9/4/1
f 17/4/1 9/4/1 1/4/1
f 17/4/1 12/4/1 11/4/1
f 17/4/1 13/4/1 12/4/1
f 18/4/1 13/4/1 17/4/1
f 19/4/1 13/4/1 18/4/1
f 20/4/1 13/4/1 19/4/1
f 21/2/1 14/2/1 13/2/1
f 21/4/1 13/4/1 20/4/1
f 22/1/1 15/1/1 14/1/1
f 22/2/1 14/2/1 21/2/1
f 23/5/1 20/5/1 19/5/1
f 23/4/1 19/4/1 18/4/1
f 24/4/1 21/4/1 20/4/1
f 24/5/1 20/5/1 23/5/1
f 24/4/1 22/4/1 21/4/1
f 25/4/1 22/4/1 24/4/1
f 26/1/1 15/1/1 22/1/1
f 26/4/1 22/4/1 25/4/1
f 27/4/1 17/4/1 1/4/1
f 27/2/1 18/2/1 17/2/1
f 28/4/1 25/4/1 24/4/1
f 28/2/1 18/2/1 27/2/1
f 28/4/1 23/4/1 18/4/1
f 28/4/1 24/4/1 23/4/1
f 29/4/1 25/4/1 28/4/1
f 30/4/1 25/4/1 29/4/1
f 31/2/1 26/2/1 25/2/1
f 31/4/1 25/4/1 30/4/1
f 32/1/1 15/1/1 26/1/1
f 32/2/1 26/2/1 31/2/1
f 33/4/1 27/4/1 1/4/1
f 33/4/1 28/4/1 27/4/1
f 33/4/1 29/4/1 28/4/1
f 34/4/1 29/4/1 33/4/1
f 35/5/1 30/5/1 29/5/1
f 35/4/1 29/4/1 34/4/1
f 36/5/1 30/5/1 35/5/1
f 37/4/1 31/4/1 30/4/1
f 37/5/1 30/5/1 36/5/1
f 37/4/1 32/4/1 31/4/1
f 38/4/1 32/4/1 37/4/1
f 39/4/1 32/4/1 38/4/1
f 40/1/1 15/1/1 32/1/1
f 40/4/1 32/4/1 39/4/1
f 41/4/1 36/4/1 35/4/1
f 41/4/1 35/4/1 34/4/1
f 41/5/1 37/5/1 36/5/1
f 41/5/1 38/5/1 37/5/1
f 42/4/1 39/4/1 38/4/1
f 42/5/1 38/5/1 41/5/1
f 43/2/1 40/2/1 39/2/1
f 43/4/1 39/4/1 42/4/1
f 44/1/1 15/1/1 40/1/1
f 44/2/1 40/2/1 43/2/1
f 45/2/1 34/2/1 33/2/1
f 45/4/1 33/4/1 1/4/1
f 46/4/1 41/4/1 34/4/1
f 46/2/1 34/2/1 45/2/1
f 46/4/1 43/4/1 42/4/1
f 46/4/1 44/4/1 43/4/1
f 46/4/1 42/4/1 41/4/1
f 47/4/1 44/4/1 46/4/1
f 48/4/1 44/4/1 47/4/1
f 49/4/1 44/4/1 48/4/1
f 50/1/1 15/1/1 44/1/1
f 50/4/1 44/4/1 49/4/1
f 51/4/1 45/4/1 1/4/1
f 51/4/1 46/4/1 45/4/1
f 51/4/1 47/4/1 46/4/1
f 52/4/1 47/4/1 51/4/1
f 53/5/1 48/5/1 47/5/1
f 53/4/1 47/4/1 52/4/1
f 54/4/1 49/4/1 48/4/1
f 54/5/1 48/5/1 53/5/1
f 55/2/1 50/2/1 49/2/1
f 55/4/1 49/4/1 54/4/1
f 56/1/1 15/1/1 50/1/1
f 56/2/1 50/2/1 55/2/1
f 57/4/1 55/4/1 54/4/1
f 57/4/1 53/4/1 52/4/1
f 57/4/1 56/4/1 55/4/1
f 57/4/1 54/4/1 53/4/1
f 58/4/1 56/4/1 57/4/1
f 59/4/1 56/4/1 58/4/1
f 60/1/1 15/1/1 56/1/1
f 60/4/1 56/4/1 59/4/1
f 61/4/1 51/4/1 1/4/1
f 61/2/1 52/2/1 51/2/1
f 62/4/1 57/4/1 52/4/1
f 62/2/1 52/2/1 61/2/1
f 63/4/1 57/4/1 62/4/1
f 64/5/1 58/5/1 57/5/1
f 64/4/1 57/4/1 63/4/1
f 65/5/1 58/5/1 64/5/1
f 66/4/1 59/4/1 58/4/1
f 66/5/1 58/5/1 65/5/1
f 67/2/1 60/2/1 59/2/1
f 67/4/1 59/4/1 66/4/1
f 68/1/1 15/1/1 60/1/1
f 68/2/1 60/2/1 67/2/1
f 69/4/1 61/4/1 1/4/1
f 69/4/1 63/4/1 62/4/1
f 69/4/1 62/4/1 61/4/1
f 70/4/1 63/4/1 69/4/1
f 71/5/1 65/5/1 64/5/1
f 71/4/1 63/4/1 70/4/1
f 71/5/1 64/5/1 63/5/1
f 72/4/1 67/4/1 66/4/1
f 72/5/1 65/5/1 71/5/1
f 72/4/1 66/4/1 65/4/1
f 72/4/1 68/4/1 67/4/1
f 73/4/1 68/4/1 72/4/1
f 74/1/1 15/1/1 68/1/1
f 74/4/1 68/4/1 73/4/1
f 75/4/1 71/4/1 70/4/1
f 75/4/1 73/4/1 72/4/1
f 75/4/1 72/4/1 71/4/1
f 76/4/1 73/4/1 75/4/1
f 77/2/1 74/2/1 73/2/1
f 77/4/1 73/4/1 76/4/1
f 78/1/1 15/1/1 74/1/1
f 78/2/1 74/2/1 77/2/1
f 79/2/1 70/2/1 69/2/1
f 79/4/1 69/4/1 1/4/1
f 80/4/1 75/4/1 70/4/1
f 80/2/1 70/2/1 79/2/1
f 81/5/1 76/5/1 75/5/1
f 81/4/1 75/4/1 80/4/1
f 82/4/1 77/4/1 76/4/1
f 82/5/1 76/5/1 81/5/1
f 82/4/1 78/4/1 77/4/1
f 83/1/1 15/1/1 78/1/1
f 83/4/1 78/4/1 82/4/1
f 84/1/1 15/1/1 83/1/1
f 86/1/1 85/1/1 84/1/1
f 87/1/1 85/1/1 86/1/1
f 88/4/1 82/4/1 81/4/1
f 88/4/1 81/4/1 80/4/1
f 88/4/1 79/4/1 1/4/1
f 88/4/1 83/4/1 82/4/1
f 88/4/1 80/4/1 79/4/1
f 89/4/1 83/4/1 88/4/1
f 92/1/1 91/1/1 90/1/1
f 93/1/1 91/1/1 92/1/1
f 96/1/1 95/1/1 94/1/1
f 97/1/1 95/1/1 96/1/1
f 100/4/1 99/4/1 98/4/1
f 101/4/1 99/4/1 100/4/1
f 102/4/1 100/4/1 98/4/1
f 106/4/1 103/4/1 102/4/1
f 106/4/1 102/4/1 98/4/1
f 107/4/1 103/4/1 106/4/1
f 108/1/1 105/1/1 104/1/1
f 109/1/1 105/1/1 108/1/1
f 110/4/2 111/4/2 114/4/2
f 114/4/2 111/4/2 115/4/2
f 112/1/2 113/1/2 116/1/2
f 116/1/2 113/1/2 117/1/2
f 110/4/2 114/4/2 118/4/2
f 110/4/2 118/4/2 120/4/2
f 118/4/2 119/4/2 120/4/2
f 120/4/2 119/4/2 121/4/2
f 122/1/2 123/1/2 124/1/2
f 124/1/2 123/1/2 125/1/2
f 126/4/2 127/4/2 130/4/2
f 130/4/2 127/4/2 131/4/2
f 131/4/2 127/4/2 132/4/2
f 132/4/2 127/4/2 133/4/2
f 126/4/2 130/4/2 134/4/2
f 130/2/2 131/2/2 134/2/2
f 131/4/2 132/4/2 135/4/2
f 134/2/2 131/2/2 135/2/2
f 132/5/2 133/5/2 136/5/2
f 135/4/2 132/4/2 136/4/2
f 133/4/2 127/4/2 137/4/2
f 136/5/2 133/5/2 137/5/2
f 137/4/2 127/4/2 138/4/2
f 138/4/2 127/4/2 139/4/2
f 128/1/2 129/1/2 140/1/2
f 140/1/2 129/1/2 141/1/2
f 135/4/2 136/4/2 142/4/2
f 134/4/2 135/4/2 142/4/2
f 126/4/2 134/4/2 142/4/2
f 136/4/2 137/4/2 142/4/2
f 137/4/2 138/4/2 142/4/2
f 142/4/2 138/4/2 143/4/2
f 143/4/2 138/4/2 144/4/2
f 144/4/2 138/4/2 145/4/2
f 138/2/2 139/2/2 146/2/2
f 145/4/2 138/4/2 146/4/2
f 139/1/2 140/1/2 147/1/2
f 146/2/2 139/2/2 147/2/2
f 144/5/2 145/5/2 148/5/2
f 143/4/2 144/4/2 148/4/2
f 145/4/2 146/4/2 149/4/2
f 148/5/2 145/5/2 149/5/2
f 146/4/2 147/4/2 149/4/2
f 149/4/2 147/4/2 150/4/2
f 147/1/2 140/1/2 151/1/2
f 150/4/2 147/4/2 151/4/2
f 126/4/2 142/4/2 152/4/2
f 142/2/2 143/2/2 152/2/2
f 149/4/2 150/4/2 153/4/2
f 152/2/2 143/2/2 153/2/2
f 143/4/2 148/4/2 153/4/2
f 148/4/2 149/4/2 153/4/2
f 153/4/2 150/4/2 154/4/2
f 154/4/2 150/4/2 155/4/2
f 150/2/2 151/2/2 156/2/2
f 155/4/2 150/4/2 156/4/2
f 151/1/2 140/1/2 157/1/2
f 156/2/2 151/2/2 157/2/2
f 126/4/2 152/4/2 158/4/2
f 152/4/2 153/4/2 158/4/2
f 153/4/2 154/4/2 158/4/2
f 158/4/2 154/4/2 159/4/2
f 154/5/2 155/5/2 160/5/2
f 159/4/2 154/4/2 160/4/2
f 160/5/2 155/5/2 161/5/2
f 155/4/2 156/4/2 162/4/2
f 161/5/2 155/5/2 162/5/2
f 156/4/2 157/4/2 162/4/2
f 162/4/2 157/4/2 163/4/2
f 163/4/2 157/4/2 164/4/2
f 157/1/2 140/1/2 165/1/2
f 164/4/2 157/4/2 165/4/2
f 160/4/2 161/4/2 166/4/2
f 159/4/2 160/4/2 166/4/2
f 161/5/2 162/5/2 166/5/2
f 162/5/2 163/5/2 166/5/2
f 163/4/2 164/4/2 167/4/2
f 166/5/2 163/5/2 167/5/2
f 164/2/2 165/2/2 168/2/2
f 167/4/2 164/4/2 168/4/2
f 165/1/2 140/1/2 169/1/2
f 168/2/2 165/2/2 169/2/2
f 158/2/2 159/2/2 170/2/2
f 126/4/2 158/4/2 170/4/2
f 159/4/2 166/4/2 171/4/2
f 170/2/2 159/2/2 171/2/2
f 167/4/2 168/4/2 171/4/2
f 168/4/2 169/4/2 171/4/2
f 166/4/2 167/4/2 171/4/2
f 171/4/2 169/4/2 172/4/2
f 172/4/2 169/4/2 173/4/2
f 173/4/2 169/4/2 174/4/2
f 169/1/2 140/1/2 175/1/2
f 174/4/2 169/4/2 175/4/2
f 126/4/2 170/4/2 176/4/2
f 170/4/2 171/4/2 176/4/2
f 171/4/2 172/4/2 176/4/2
f 176/4/2 172/4/2 177/4/2
f 172/5/2 173/5/2 178/5/2
f 177/4/2 172/4/2 178/4/2
f 173/4/2 174/4/2 179/4/2
f 178/5/2 173/5/2 179/5/2
f 174/2/2 175/2/2 180/2/2
f 179/4/2 174/4/2 180/4/2
f 175/1/2 140/1/2 181/1/2
f 180/2/2 175/2/2 181/2/2
f 179/4/2 180/4/2 182/4/2
f 177/4/2 178/4/2 182/4/2
f 180/4/2 181/4/2 182/4/2
f 178/4/2 179/4/2 182/4/2
f 182/4/2 181/4/2 183/4/2
f 183/4/2 181/4/2 184/4/2
f 181/1/2 140/1/2 185/1/2
f 184/4/2 181/4/2 185/4/2
f 126/4/2 176/4/2 186/4/2
f 176/2/2 177/2/2 186/2/2
f 177/4/2 182/4/2 187/4/2
f 186/2/2 177/2/2 187/2/2
f 187/4/2 182/4/2 188/4/2
f 182/5/2 183/5/2 189/5/2
f 188/4/2 182/4/2 189/4/2
f 189/5/2 183/5/2 190/5/2
f 183/4/2 184/4/2 191/4/2
f 190/5/2 183/5/2 191/5/2
f 184/2/2 185/2/2 192/2/2
f 191/4/2 184/4/2 192/4/2
f 185/1/2 140/1/2 193/1/2
f 192/2/2 185/2/2 193/2/2
f 126/4/2 186/4/2 194/4/2
f 187/4/2 188/4/2 194/4/2
f 186/4/2 187/4/2 194/4/2
f 194/4/2 188/4/2 195/4/2
f 189/5/2 190/5/2 196/5/2
f 195/4/2 188/4/2 196/4/2
f 188/5/2 189/5/2 196/5/2
f 191/4/2 192/4/2 197/4/2
f 196/5/2 190/5/2 197/5/2
f 190/4/2 191/4/2 197/4/2
f 192/4/2 193/4/2 197/4/2
f 197/4/2 193/4/2 198/4/2
f 193/1/2 140/1/2 199/1/2
f 198/4/2 193/4/2 199/4/2
f 195/4/2 196/4/2 200/4/2
f 197/4/2 198/4/2 200/4/2
f 196/4/2 197/4/2 200/4/2
f 200/4/2 198/4/2 201/4/2
f 198/2/2 199/2/2 202/2/2
f 201/4/2 198/4/2 202/4/2
f 199/1/2 140/1/2 203/1/2
f 202/2/2 199/2/2 203/2/2
f 194/2/2 195/2/2 204/2/2
f 126/4/2 194/4/2 204/4/2
f 195/4/2 200/4/2 205/4/2
f 204/2/2 195/2/2 205/2/2
f 200/5/2 201/5/2 206/5/2
f 205/4/2 200/4/2 206/4/2
f 201/4/2 202/4/2 207/4/2
f 206/5/2 201/5/2 207/5/2
f 202/4/2 203/4/2 207/4/2
f 203/1/2 140/1/2 208/1/2
f 207/4/2 203/4/2 208/4/2
f 208/1/2 140/1/2 209/1/2
f 206/4/2 207/4/2 211/4/2
f 205/4/2 206/4/2 211/4/2
f 207/4/2 208/4/2 211/4/2
f 204/4/2 205/4/2 211/4/2
f 126/4/2 204/4/2 211/4/2
f 211/4/2 208/4/2 212/4/2
f 209/1/2 210/1/2 213/1/2
f 213/1/2 210/1/2 214/1/2
f 217/4/3 216/4/3 215/4/3
f 218/4/3 216/4/3 217/4/3
f 221/4/3 220/4/3 219/4/3
f 222/4/3 220/4/3 221/4/3
f 225/3/3 224/3/3 223/3/3
f 226/3/3 224/3/3 225/3/3
f 231/1/3 228/1/3 227/1/3
f 232/1/3 228/1/3 231/1/3
f 233/1/3 230/1/3 229/1/3
f 236/1/3 228/1/3 232/1/3
f 237/1/3 233/1/3 229/1/3
f 237/1/3 234/1/3 233/1/3
f 238/1/3 234/1/3 237/1/3
f 239/1/3 237/1/3 229/1/3
f 241/1/3 236/1/3 235/1/3
f 242/1/3 228/1/3 236/1/3
f 242/1/3 236/1/3 241/1/3
f 243/1/3 240/1/3 239/1/3
f 243/1/3 239/1/3 229/1/3
f 244/1/3 240/1/3 243/1/3
f 245/4/4 246/4/4 249/4/4
f 249/4/4 246/4/4 250/4/4
f 250/4/4 246/4/4 251/4/4
f 247/4/4 248/4/4 252/4/4
f 252/4/4 248/4/4 253/4/4
f 253/4/4 248/4/4 254/4/4
f 250/3/4 251/3/4 256/3/4
f 256/3/4 251/3/4 257/3/4
f 252/3/4 253/3/4 258/3/4
f 258/3/4 253/3/4 259/3/4
f 256/4/4 257/4/4 261/4/4
f 255/4/4 256/4/4 261/4/4
f 261/4/4 257/4/4 262/4/4
f 259/4/4 260/4/4 263/4/4
f 258/4/4 259/4/4 263/4/4
f 263/4/4 260/4/4 264/4/4
f 265/1/4 266/1/4 267/1/4
f 267/1/4 266/1/4 268/1/4
f 269/1/4 270/1/4 273/1/4
f 273/1/4 270/1/4 274/1/4
f 271/1/4 272/1/4 275/1/4
f 274/1/4 270/1/4 278/1/4
f 271/1/4 275/1/4 279/1/4
f 275/1/4 276/1/4 279/1/4
f 279/1/4 276/1/4 280/1/4
f 271/1/4 279/1/4 281/1/4
f 277/1/4 278/1/4 283/1/4
f 278/1/4 270/1/4 284/1/4
f 283/1/4 278/1/4 284/1/4
f 281/1/4 282/1/4 285/1/4
f 271/1/4 281/1/4 285/1/4
f 285/1/4 282/1/4 286/1/4
f 291/4/5 288/4/5 287/4/5
f 292/4/5 288/4/5 291/4/5
f 293/4/5 290/4/5 289/4/5
f 294/4/5 290/4/5 293/4/5
f 299/1/5 296/1/5 295/1/5
f 300/1/5 296/1/5 299/1/5
f 301/1/5 298/1/5 297/1/5
f 302/1/5 298/1/5 301/1/5
f 305/3/5 304/3/5 303/3/5
f 306/3/5 304/3/5 305/3/5
f 309/1/5 308/1/5 307/1/5
f 310/1/5 308/1/5 309/1/5
f 315/1/5 312/1/5 311/1/5
f 315/1/5 314/1/5 313/1/5
f 315/1/5 313/1/5 312/1/5
f 316/1/5 314/1/5 315/1/5
f 319/1/5 318/1/5 317/1/5
f 320/1/5 318/1/5 319/1/5
f 321/1/6 322/1/6 323/1/6
f 323/1/6 322/1/6 324/1/6
f 325/1/6 326/1/6 329/1/6
f 327/1/6 328/1/6 329/1/6
f 326/1/6 327/1/6 329/1/6
f 329/1/6 328/1/6 330/1/6
f 331/3/6 332/3/6 333/3/6
f 333/3/6 332/3/6 334/3/6
f 335/1/6 336/1/6 339/1/6
f 339/1/6 336/1/6 340/1/6
f 337/1/6 338/1/6 341/1/6
f 341/1/6 338/1/6 342/1/6
f 343/4/6 344/4/6 347/4/6
f 347/4/6 344/4/6 348/4/6
f 345/4/6 346/4/6 349/4/6
f 349/4/6 346/4/6 350/4/6
f 351/1/6 352/1/6 355/1/6
f 355/1/6 352/1/6 356/1/6
f 353/1/6 354/1/6 357/1/6
f 357/1/6 354/1/6 358/1/6
